<svg width="461" height="70" viewBox="0 0 461 70" fill="none" xmlns="http://www.w3.org/2000/svg">
<rect width="461" height="70,,," fill="#F5F5F5"/>
<g filter="url(#filter0_d_0_1)">
<mask id="path-1-outside-1_0_1" maskUnits="userSpaceOnUse" x="3" y="-1" width="455" height="64" fill="black">
<rect fill="white" x="3" y="-1" width="455" height="64"/>
<path d="M4.72443 48V0.727271H20.6974C24.3906 0.727271 27.4221 1.35819 29.7919 2.62003C32.1617 3.86647 33.916 5.58227 35.0547 7.7674C36.1934 9.95253 36.7628 12.4377 36.7628 15.223C36.7628 18.0083 36.1934 20.4781 35.0547 22.6325C33.916 24.7868 32.1694 26.4795 29.815 27.7106C27.4606 28.9263 24.4522 29.5341 20.7898 29.5341H7.86364V24.3636H20.6051C23.1288 24.3636 25.16 23.9943 26.6989 23.2557C28.2531 22.517 29.3764 21.4706 30.0689 20.1165C30.7768 18.7469 31.1307 17.1158 31.1307 15.223C31.1307 13.3303 30.7768 11.676 30.0689 10.2603C29.361 8.84458 28.23 7.75201 26.6758 6.9826C25.1216 6.1978 23.0672 5.8054 20.5128 5.8054H10.4489V48H4.72443ZM26.9759 26.7642L38.6094 48H31.9617L20.5128 26.7642H26.9759ZM55.9962 48.831C53.7495 48.831 51.7106 48.4078 49.8794 47.5614C48.0481 46.6997 46.594 45.4609 45.5168 43.8452C44.4396 42.214 43.901 40.2443 43.901 37.9361C43.901 35.9048 44.3011 34.2583 45.1013 32.9964C45.9015 31.7192 46.971 30.719 48.3097 29.9957C49.6485 29.2725 51.1258 28.7339 52.7416 28.38C54.3727 28.0107 56.0116 27.7183 57.6581 27.5028C59.8125 27.2259 61.559 27.0181 62.8978 26.8796C64.252 26.7257 65.2368 26.4718 65.8524 26.1179C66.4833 25.764 66.7987 25.1484 66.7987 24.2713V24.0866C66.7987 21.8092 66.1755 20.0395 64.9291 18.7777C63.698 17.5159 61.8283 16.8849 59.32 16.8849C56.7194 16.8849 54.6805 17.4543 53.2032 18.593C51.7259 19.7318 50.6872 20.9474 50.0871 22.2401L44.9166 20.3935C45.8399 18.2391 47.071 16.5618 48.6098 15.3615C50.164 14.1458 51.8567 13.2995 53.6879 12.8224C55.5345 12.33 57.3503 12.0838 59.1354 12.0838C60.2741 12.0838 61.5821 12.2223 63.0594 12.4993C64.5521 12.7609 65.9909 13.3072 67.3758 14.1381C68.7761 14.9691 69.9379 16.2232 70.8612 17.9006C71.7845 19.5779 72.2462 21.8246 72.2462 24.6406V48H66.7987V43.1989H66.5218C66.1524 43.9683 65.5369 44.7915 64.6752 45.6687C63.8134 46.5458 62.667 47.2921 61.2359 47.9077C59.8048 48.5232 58.0582 48.831 55.9962 48.831ZM56.8271 43.9375C58.9815 43.9375 60.7973 43.5143 62.2746 42.668C63.7673 41.8216 64.8906 40.729 65.6446 39.3903C66.414 38.0515 66.7987 36.6435 66.7987 35.1662V30.1804C66.5679 30.4574 66.0601 30.7113 65.2753 30.9421C64.5059 31.1576 63.6134 31.3499 62.5977 31.5192C61.5975 31.6731 60.6204 31.8116 59.6663 31.9347C58.7276 32.0424 57.9659 32.1347 57.3811 32.2116C55.9654 32.3963 54.642 32.6964 53.411 33.1119C52.1953 33.512 51.2104 34.1198 50.4564 34.9354C49.7178 35.7356 49.3485 36.8281 49.3485 38.2131C49.3485 40.1058 50.0486 41.5369 51.449 42.5064C52.8647 43.4605 54.6574 43.9375 56.8271 43.9375ZM82.1889 61.2955V12.5455H87.4517V18.1776H88.098C88.4981 17.562 89.0521 16.7772 89.7599 15.8232C90.4832 14.8537 91.5142 13.992 92.853 13.2379C94.2072 12.4685 96.0384 12.0838 98.3466 12.0838C101.332 12.0838 103.963 12.8301 106.241 14.3228C108.518 15.8155 110.296 17.9313 111.573 20.6705C112.85 23.4096 113.489 26.6411 113.489 30.3651C113.489 34.1198 112.85 37.3744 111.573 40.1289C110.296 42.868 108.526 44.9916 106.264 46.4996C104.002 47.9923 101.393 48.7386 98.4389 48.7386C96.1615 48.7386 94.338 48.3616 92.9684 47.6076C91.5988 46.8382 90.5447 45.9687 89.8061 44.9993C89.0675 44.0144 88.4981 43.1989 88.098 42.5526H87.6364V61.2955H82.1889ZM87.544 30.2727C87.544 32.9503 87.9364 35.3124 88.7212 37.359C89.506 39.3903 90.6525 40.983 92.1605 42.1371C93.6686 43.2758 95.5152 43.8452 97.7003 43.8452C99.9777 43.8452 101.878 43.245 103.402 42.0447C104.94 40.8291 106.095 39.1979 106.864 37.1513C107.649 35.0893 108.041 32.7964 108.041 30.2727C108.041 27.7798 107.656 25.5331 106.887 23.5327C106.133 21.5168 104.987 19.9241 103.448 18.7546C101.924 17.5697 100.009 16.9773 97.7003 16.9773C95.4844 16.9773 93.6224 17.5389 92.1143 18.6623C90.6063 19.7702 89.4676 21.3245 88.6982 23.3249C87.9287 25.31 87.544 27.6259 87.544 30.2727ZM127.246 26.6719V48H121.798V0.727271H127.246V18.0852H127.707C128.538 16.254 129.785 14.7998 131.447 13.7227C133.124 12.6301 135.355 12.0838 138.141 12.0838C140.557 12.0838 142.672 12.5685 144.488 13.538C146.304 14.4921 147.712 15.9616 148.712 17.9467C149.728 19.9164 150.236 22.4247 150.236 25.4716V48H144.788V25.8409C144.788 23.0249 144.057 20.8474 142.596 19.3086C141.149 17.7544 139.141 16.9773 136.571 16.9773C134.786 16.9773 133.186 17.3543 131.77 18.1083C130.37 18.8623 129.262 19.9626 128.446 21.4091C127.646 22.8556 127.246 24.6098 127.246 26.6719ZM170.635 48.831C168.388 48.831 166.349 48.4078 164.518 47.5614C162.687 46.6997 161.233 45.4609 160.155 43.8452C159.078 42.214 158.54 40.2443 158.54 37.9361C158.54 35.9048 158.94 34.2583 159.74 32.9964C160.54 31.7192 161.61 30.719 162.948 29.9957C164.287 29.2725 165.764 28.7339 167.38 28.38C169.011 28.0107 170.65 27.7183 172.297 27.5028C174.451 27.2259 176.198 27.0181 177.536 26.8796C178.891 26.7257 179.876 26.4718 180.491 26.1179C181.122 25.764 181.437 25.1484 181.437 24.2713V24.0866C181.437 21.8092 180.814 20.0395 179.568 18.7777C178.337 17.5159 176.467 16.8849 173.959 16.8849C171.358 16.8849 169.319 17.4543 167.842 18.593C166.365 19.7318 165.326 20.9474 164.726 22.2401L159.555 20.3935C160.479 18.2391 161.71 16.5618 163.248 15.3615C164.803 14.1458 166.495 13.2995 168.327 12.8224C170.173 12.33 171.989 12.0838 173.774 12.0838C174.913 12.0838 176.221 12.2223 177.698 12.4993C179.191 12.7609 180.63 13.3072 182.014 14.1381C183.415 14.9691 184.577 16.2232 185.5 17.9006C186.423 19.5779 186.885 21.8246 186.885 24.6406V48H181.437V43.1989H181.16C180.791 43.9683 180.176 44.7915 179.314 45.6687C178.452 46.5458 177.306 47.2921 175.875 47.9077C174.443 48.5232 172.697 48.831 170.635 48.831ZM171.466 43.9375C173.62 43.9375 175.436 43.5143 176.913 42.668C178.406 41.8216 179.529 40.729 180.283 39.3903C181.053 38.0515 181.437 36.6435 181.437 35.1662V30.1804C181.207 30.4574 180.699 30.7113 179.914 30.9421C179.145 31.1576 178.252 31.3499 177.236 31.5192C176.236 31.6731 175.259 31.8116 174.305 31.9347C173.366 32.0424 172.605 32.1347 172.02 32.2116C170.604 32.3963 169.281 32.6964 168.05 33.1119C166.834 33.512 165.849 34.1198 165.095 34.9354C164.356 35.7356 163.987 36.8281 163.987 38.2131C163.987 40.1058 164.687 41.5369 166.088 42.5064C167.503 43.4605 169.296 43.9375 171.466 43.9375ZM211.693 48.7386C208.276 48.7386 205.33 47.9846 202.852 46.4766C200.39 44.9531 198.49 42.8295 197.151 40.1058C195.827 37.3667 195.166 34.1813 195.166 30.5497C195.166 26.9181 195.827 23.7173 197.151 20.9474C198.49 18.1622 200.352 15.9924 202.737 14.4382C205.137 12.8686 207.938 12.0838 211.139 12.0838C212.985 12.0838 214.809 12.3916 216.609 13.0071C218.41 13.6226 220.048 14.6229 221.526 16.0078C223.003 17.3774 224.18 19.1932 225.057 21.4553C225.934 23.7173 226.373 26.5026 226.373 29.8111V32.1193H199.044V27.4105H220.833C220.833 25.41 220.433 23.625 219.633 22.0554C218.848 20.4858 217.725 19.247 216.263 18.3391C214.816 17.4312 213.108 16.9773 211.139 16.9773C208.969 16.9773 207.092 17.5159 205.507 18.593C203.937 19.6548 202.729 21.0398 201.883 22.7479C201.036 24.456 200.613 26.2872 200.613 28.2415V31.3807C200.613 34.0582 201.075 36.328 201.998 38.19C202.937 40.0366 204.237 41.4446 205.899 42.4141C207.561 43.3681 209.492 43.8452 211.693 43.8452C213.124 43.8452 214.416 43.6451 215.57 43.245C216.74 42.8295 217.748 42.214 218.594 41.3984C219.441 40.5675 220.095 39.5365 220.556 38.3054L225.819 39.7827C225.265 41.5677 224.334 43.1373 223.026 44.4915C221.718 45.8303 220.102 46.8767 218.179 47.6307C216.255 48.3693 214.093 48.7386 211.693 48.7386ZM240.107 0.727271V48H234.66V0.727271H240.107ZM306.59 0.727271V48H301.05L275.29 10.8835H274.829V48H269.104V0.727271H274.644L300.496 37.9361H300.958V0.727271H306.59ZM339.65 33.5043V12.5455H345.097V48H339.65V41.9986H339.281C338.45 43.799 337.157 45.3301 335.403 46.592C333.648 47.8384 331.433 48.4616 328.755 48.4616C326.539 48.4616 324.569 47.9769 322.846 47.0075C321.122 46.0226 319.768 44.5453 318.783 42.5756C317.799 40.5906 317.306 38.09 317.306 35.0739V12.5455H322.754V34.7045C322.754 37.2898 323.477 39.3518 324.923 40.8906C326.385 42.4295 328.247 43.1989 330.509 43.1989C331.863 43.1989 333.241 42.8526 334.641 42.1602C336.057 41.4677 337.242 40.4059 338.196 38.9748C339.165 37.5437 339.65 35.7202 339.65 33.5043ZM360.522 26.6719V48H355.075V12.5455H360.337V18.0852H360.799C361.63 16.2848 362.892 14.8383 364.585 13.7457C366.277 12.6378 368.462 12.0838 371.14 12.0838C373.541 12.0838 375.641 12.5762 377.441 13.5611C379.242 14.5305 380.642 16.0078 381.642 17.9929C382.643 19.9626 383.143 22.4555 383.143 25.4716V48H377.695V25.8409C377.695 23.0556 376.972 20.8859 375.526 19.3317C374.079 17.7621 372.094 16.9773 369.57 16.9773C367.832 16.9773 366.277 17.3543 364.908 18.1083C363.554 18.8623 362.484 19.9626 361.699 21.4091C360.915 22.8556 360.522 24.6098 360.522 26.6719ZM407.962 48.7386C404.546 48.7386 401.599 47.9846 399.122 46.4766C396.66 44.9531 394.759 42.8295 393.42 40.1058C392.097 37.3667 391.435 34.1813 391.435 30.5497C391.435 26.9181 392.097 23.7173 393.42 20.9474C394.759 18.1622 396.621 15.9924 399.006 14.4382C401.407 12.8686 404.207 12.0838 407.408 12.0838C409.255 12.0838 411.078 12.3916 412.879 13.0071C414.679 13.6226 416.318 14.6229 417.795 16.0078C419.273 17.3774 420.45 19.1932 421.327 21.4553C422.204 23.7173 422.643 26.5026 422.643 29.8111V32.1193H395.313V27.4105H417.103C417.103 25.41 416.703 23.625 415.903 22.0554C415.118 20.4858 413.994 19.247 412.532 18.3391C411.086 17.4312 409.378 16.9773 407.408 16.9773C405.238 16.9773 403.361 17.5159 401.776 18.593C400.206 19.6548 398.999 21.0398 398.152 22.7479C397.306 24.456 396.883 26.2872 396.883 28.2415V31.3807C396.883 34.0582 397.344 36.328 398.268 38.19C399.206 40.0366 400.507 41.4446 402.169 42.4141C403.83 43.3681 405.762 43.8452 407.962 43.8452C409.393 43.8452 410.686 43.6451 411.84 43.245C413.01 42.8295 414.017 42.214 414.864 41.3984C415.71 40.5675 416.364 39.5365 416.826 38.3054L422.089 39.7827C421.535 41.5677 420.604 43.1373 419.296 44.4915C417.988 45.8303 416.372 46.8767 414.448 47.6307C412.525 48.3693 410.363 48.7386 407.962 48.7386ZM456.043 20.4858L451.149 21.8707C450.842 21.0552 450.388 20.2627 449.787 19.4933C449.203 18.7085 448.403 18.0621 447.387 17.5543C446.371 17.0465 445.071 16.7926 443.486 16.7926C441.316 16.7926 439.508 17.2927 438.062 18.293C436.631 19.2778 435.915 20.532 435.915 22.0554C435.915 23.4096 436.407 24.479 437.392 25.2638C438.377 26.0486 439.916 26.7027 442.009 27.2259L447.271 28.5185C450.441 29.2879 452.804 30.4651 454.358 32.0501C455.912 33.6197 456.689 35.6432 456.689 38.1207C456.689 40.152 456.104 41.9678 454.935 43.5682C453.781 45.1686 452.165 46.4304 450.088 47.3537C448.01 48.277 445.594 48.7386 442.84 48.7386C439.223 48.7386 436.23 47.9538 433.861 46.3842C431.491 44.8146 429.99 42.5218 429.36 39.5057L434.53 38.2131C435.022 40.1212 435.953 41.5523 437.323 42.5064C438.708 43.4605 440.516 43.9375 442.747 43.9375C445.286 43.9375 447.302 43.3989 448.795 42.3217C450.303 41.2292 451.057 39.9212 451.057 38.3977C451.057 37.1667 450.626 36.1357 449.764 35.3047C448.903 34.4583 447.579 33.8274 445.794 33.4119L439.885 32.027C436.638 31.2576 434.253 30.065 432.73 28.4492C431.222 26.8181 430.468 24.7791 430.468 22.3324C430.468 20.3319 431.029 18.5623 432.153 17.0234C433.291 15.4846 434.838 14.2766 436.792 13.3995C438.762 12.5224 440.993 12.0838 443.486 12.0838C446.994 12.0838 449.749 12.8532 451.749 14.392C453.765 15.9309 455.196 17.9621 456.043 20.4858Z"/>
</mask>
<path d="M4.72443 48V0.727271H20.6974C24.3906 0.727271 27.4221 1.35819 29.7919 2.62003C32.1617 3.86647 33.916 5.58227 35.0547 7.7674C36.1934 9.95253 36.7628 12.4377 36.7628 15.223C36.7628 18.0083 36.1934 20.4781 35.0547 22.6325C33.916 24.7868 32.1694 26.4795 29.815 27.7106C27.4606 28.9263 24.4522 29.5341 20.7898 29.5341H7.86364V24.3636H20.6051C23.1288 24.3636 25.16 23.9943 26.6989 23.2557C28.2531 22.517 29.3764 21.4706 30.0689 20.1165C30.7768 18.7469 31.1307 17.1158 31.1307 15.223C31.1307 13.3303 30.7768 11.676 30.0689 10.2603C29.361 8.84458 28.23 7.75201 26.6758 6.9826C25.1216 6.1978 23.0672 5.8054 20.5128 5.8054H10.4489V48H4.72443ZM26.9759 26.7642L38.6094 48H31.9617L20.5128 26.7642H26.9759ZM55.9962 48.831C53.7495 48.831 51.7106 48.4078 49.8794 47.5614C48.0481 46.6997 46.594 45.4609 45.5168 43.8452C44.4396 42.214 43.901 40.2443 43.901 37.9361C43.901 35.9048 44.3011 34.2583 45.1013 32.9964C45.9015 31.7192 46.971 30.719 48.3097 29.9957C49.6485 29.2725 51.1258 28.7339 52.7416 28.38C54.3727 28.0107 56.0116 27.7183 57.6581 27.5028C59.8125 27.2259 61.559 27.0181 62.8978 26.8796C64.252 26.7257 65.2368 26.4718 65.8524 26.1179C66.4833 25.764 66.7987 25.1484 66.7987 24.2713V24.0866C66.7987 21.8092 66.1755 20.0395 64.9291 18.7777C63.698 17.5159 61.8283 16.8849 59.32 16.8849C56.7194 16.8849 54.6805 17.4543 53.2032 18.593C51.7259 19.7318 50.6872 20.9474 50.0871 22.2401L44.9166 20.3935C45.8399 18.2391 47.071 16.5618 48.6098 15.3615C50.164 14.1458 51.8567 13.2995 53.6879 12.8224C55.5345 12.33 57.3503 12.0838 59.1354 12.0838C60.2741 12.0838 61.5821 12.2223 63.0594 12.4993C64.5521 12.7609 65.9909 13.3072 67.3758 14.1381C68.7761 14.9691 69.9379 16.2232 70.8612 17.9006C71.7845 19.5779 72.2462 21.8246 72.2462 24.6406V48H66.7987V43.1989H66.5218C66.1524 43.9683 65.5369 44.7915 64.6752 45.6687C63.8134 46.5458 62.667 47.2921 61.2359 47.9077C59.8048 48.5232 58.0582 48.831 55.9962 48.831ZM56.8271 43.9375C58.9815 43.9375 60.7973 43.5143 62.2746 42.668C63.7673 41.8216 64.8906 40.729 65.6446 39.3903C66.414 38.0515 66.7987 36.6435 66.7987 35.1662V30.1804C66.5679 30.4574 66.0601 30.7113 65.2753 30.9421C64.5059 31.1576 63.6134 31.3499 62.5977 31.5192C61.5975 31.6731 60.6204 31.8116 59.6663 31.9347C58.7276 32.0424 57.9659 32.1347 57.3811 32.2116C55.9654 32.3963 54.642 32.6964 53.411 33.1119C52.1953 33.512 51.2104 34.1198 50.4564 34.9354C49.7178 35.7356 49.3485 36.8281 49.3485 38.2131C49.3485 40.1058 50.0486 41.5369 51.449 42.5064C52.8647 43.4605 54.6574 43.9375 56.8271 43.9375ZM82.1889 61.2955V12.5455H87.4517V18.1776H88.098C88.4981 17.562 89.0521 16.7772 89.7599 15.8232C90.4832 14.8537 91.5142 13.992 92.853 13.2379C94.2072 12.4685 96.0384 12.0838 98.3466 12.0838C101.332 12.0838 103.963 12.8301 106.241 14.3228C108.518 15.8155 110.296 17.9313 111.573 20.6705C112.85 23.4096 113.489 26.6411 113.489 30.3651C113.489 34.1198 112.85 37.3744 111.573 40.1289C110.296 42.868 108.526 44.9916 106.264 46.4996C104.002 47.9923 101.393 48.7386 98.4389 48.7386C96.1615 48.7386 94.338 48.3616 92.9684 47.6076C91.5988 46.8382 90.5447 45.9687 89.8061 44.9993C89.0675 44.0144 88.4981 43.1989 88.098 42.5526H87.6364V61.2955H82.1889ZM87.544 30.2727C87.544 32.9503 87.9364 35.3124 88.7212 37.359C89.506 39.3903 90.6525 40.983 92.1605 42.1371C93.6686 43.2758 95.5152 43.8452 97.7003 43.8452C99.9777 43.8452 101.878 43.245 103.402 42.0447C104.94 40.8291 106.095 39.1979 106.864 37.1513C107.649 35.0893 108.041 32.7964 108.041 30.2727C108.041 27.7798 107.656 25.5331 106.887 23.5327C106.133 21.5168 104.987 19.9241 103.448 18.7546C101.924 17.5697 100.009 16.9773 97.7003 16.9773C95.4844 16.9773 93.6224 17.5389 92.1143 18.6623C90.6063 19.7702 89.4676 21.3245 88.6982 23.3249C87.9287 25.31 87.544 27.6259 87.544 30.2727ZM127.246 26.6719V48H121.798V0.727271H127.246V18.0852H127.707C128.538 16.254 129.785 14.7998 131.447 13.7227C133.124 12.6301 135.355 12.0838 138.141 12.0838C140.557 12.0838 142.672 12.5685 144.488 13.538C146.304 14.4921 147.712 15.9616 148.712 17.9467C149.728 19.9164 150.236 22.4247 150.236 25.4716V48H144.788V25.8409C144.788 23.0249 144.057 20.8474 142.596 19.3086C141.149 17.7544 139.141 16.9773 136.571 16.9773C134.786 16.9773 133.186 17.3543 131.77 18.1083C130.37 18.8623 129.262 19.9626 128.446 21.4091C127.646 22.8556 127.246 24.6098 127.246 26.6719ZM170.635 48.831C168.388 48.831 166.349 48.4078 164.518 47.5614C162.687 46.6997 161.233 45.4609 160.155 43.8452C159.078 42.214 158.54 40.2443 158.54 37.9361C158.54 35.9048 158.94 34.2583 159.74 32.9964C160.54 31.7192 161.61 30.719 162.948 29.9957C164.287 29.2725 165.764 28.7339 167.38 28.38C169.011 28.0107 170.65 27.7183 172.297 27.5028C174.451 27.2259 176.198 27.0181 177.536 26.8796C178.891 26.7257 179.876 26.4718 180.491 26.1179C181.122 25.764 181.437 25.1484 181.437 24.2713V24.0866C181.437 21.8092 180.814 20.0395 179.568 18.7777C178.337 17.5159 176.467 16.8849 173.959 16.8849C171.358 16.8849 169.319 17.4543 167.842 18.593C166.365 19.7318 165.326 20.9474 164.726 22.2401L159.555 20.3935C160.479 18.2391 161.71 16.5618 163.248 15.3615C164.803 14.1458 166.495 13.2995 168.327 12.8224C170.173 12.33 171.989 12.0838 173.774 12.0838C174.913 12.0838 176.221 12.2223 177.698 12.4993C179.191 12.7609 180.63 13.3072 182.014 14.1381C183.415 14.9691 184.577 16.2232 185.5 17.9006C186.423 19.5779 186.885 21.8246 186.885 24.6406V48H181.437V43.1989H181.16C180.791 43.9683 180.176 44.7915 179.314 45.6687C178.452 46.5458 177.306 47.2921 175.875 47.9077C174.443 48.5232 172.697 48.831 170.635 48.831ZM171.466 43.9375C173.62 43.9375 175.436 43.5143 176.913 42.668C178.406 41.8216 179.529 40.729 180.283 39.3903C181.053 38.0515 181.437 36.6435 181.437 35.1662V30.1804C181.207 30.4574 180.699 30.7113 179.914 30.9421C179.145 31.1576 178.252 31.3499 177.236 31.5192C176.236 31.6731 175.259 31.8116 174.305 31.9347C173.366 32.0424 172.605 32.1347 172.02 32.2116C170.604 32.3963 169.281 32.6964 168.05 33.1119C166.834 33.512 165.849 34.1198 165.095 34.9354C164.356 35.7356 163.987 36.8281 163.987 38.2131C163.987 40.1058 164.687 41.5369 166.088 42.5064C167.503 43.4605 169.296 43.9375 171.466 43.9375ZM211.693 48.7386C208.276 48.7386 205.33 47.9846 202.852 46.4766C200.39 44.9531 198.49 42.8295 197.151 40.1058C195.827 37.3667 195.166 34.1813 195.166 30.5497C195.166 26.9181 195.827 23.7173 197.151 20.9474C198.49 18.1622 200.352 15.9924 202.737 14.4382C205.137 12.8686 207.938 12.0838 211.139 12.0838C212.985 12.0838 214.809 12.3916 216.609 13.0071C218.41 13.6226 220.048 14.6229 221.526 16.0078C223.003 17.3774 224.18 19.1932 225.057 21.4553C225.934 23.7173 226.373 26.5026 226.373 29.8111V32.1193H199.044V27.4105H220.833C220.833 25.41 220.433 23.625 219.633 22.0554C218.848 20.4858 217.725 19.247 216.263 18.3391C214.816 17.4312 213.108 16.9773 211.139 16.9773C208.969 16.9773 207.092 17.5159 205.507 18.593C203.937 19.6548 202.729 21.0398 201.883 22.7479C201.036 24.456 200.613 26.2872 200.613 28.2415V31.3807C200.613 34.0582 201.075 36.328 201.998 38.19C202.937 40.0366 204.237 41.4446 205.899 42.4141C207.561 43.3681 209.492 43.8452 211.693 43.8452C213.124 43.8452 214.416 43.6451 215.57 43.245C216.74 42.8295 217.748 42.214 218.594 41.3984C219.441 40.5675 220.095 39.5365 220.556 38.3054L225.819 39.7827C225.265 41.5677 224.334 43.1373 223.026 44.4915C221.718 45.8303 220.102 46.8767 218.179 47.6307C216.255 48.3693 214.093 48.7386 211.693 48.7386ZM240.107 0.727271V48H234.66V0.727271H240.107ZM306.59 0.727271V48H301.05L275.29 10.8835H274.829V48H269.104V0.727271H274.644L300.496 37.9361H300.958V0.727271H306.59ZM339.65 33.5043V12.5455H345.097V48H339.65V41.9986H339.281C338.45 43.799 337.157 45.3301 335.403 46.592C333.648 47.8384 331.433 48.4616 328.755 48.4616C326.539 48.4616 324.569 47.9769 322.846 47.0075C321.122 46.0226 319.768 44.5453 318.783 42.5756C317.799 40.5906 317.306 38.09 317.306 35.0739V12.5455H322.754V34.7045C322.754 37.2898 323.477 39.3518 324.923 40.8906C326.385 42.4295 328.247 43.1989 330.509 43.1989C331.863 43.1989 333.241 42.8526 334.641 42.1602C336.057 41.4677 337.242 40.4059 338.196 38.9748C339.165 37.5437 339.65 35.7202 339.65 33.5043ZM360.522 26.6719V48H355.075V12.5455H360.337V18.0852H360.799C361.63 16.2848 362.892 14.8383 364.585 13.7457C366.277 12.6378 368.462 12.0838 371.14 12.0838C373.541 12.0838 375.641 12.5762 377.441 13.5611C379.242 14.5305 380.642 16.0078 381.642 17.9929C382.643 19.9626 383.143 22.4555 383.143 25.4716V48H377.695V25.8409C377.695 23.0556 376.972 20.8859 375.526 19.3317C374.079 17.7621 372.094 16.9773 369.57 16.9773C367.832 16.9773 366.277 17.3543 364.908 18.1083C363.554 18.8623 362.484 19.9626 361.699 21.4091C360.915 22.8556 360.522 24.6098 360.522 26.6719ZM407.962 48.7386C404.546 48.7386 401.599 47.9846 399.122 46.4766C396.66 44.9531 394.759 42.8295 393.42 40.1058C392.097 37.3667 391.435 34.1813 391.435 30.5497C391.435 26.9181 392.097 23.7173 393.42 20.9474C394.759 18.1622 396.621 15.9924 399.006 14.4382C401.407 12.8686 404.207 12.0838 407.408 12.0838C409.255 12.0838 411.078 12.3916 412.879 13.0071C414.679 13.6226 416.318 14.6229 417.795 16.0078C419.273 17.3774 420.45 19.1932 421.327 21.4553C422.204 23.7173 422.643 26.5026 422.643 29.8111V32.1193H395.313V27.4105H417.103C417.103 25.41 416.703 23.625 415.903 22.0554C415.118 20.4858 413.994 19.247 412.532 18.3391C411.086 17.4312 409.378 16.9773 407.408 16.9773C405.238 16.9773 403.361 17.5159 401.776 18.593C400.206 19.6548 398.999 21.0398 398.152 22.7479C397.306 24.456 396.883 26.2872 396.883 28.2415V31.3807C396.883 34.0582 397.344 36.328 398.268 38.19C399.206 40.0366 400.507 41.4446 402.169 42.4141C403.83 43.3681 405.762 43.8452 407.962 43.8452C409.393 43.8452 410.686 43.6451 411.84 43.245C413.01 42.8295 414.017 42.214 414.864 41.3984C415.71 40.5675 416.364 39.5365 416.826 38.3054L422.089 39.7827C421.535 41.5677 420.604 43.1373 419.296 44.4915C417.988 45.8303 416.372 46.8767 414.448 47.6307C412.525 48.3693 410.363 48.7386 407.962 48.7386ZM456.043 20.4858L451.149 21.8707C450.842 21.0552 450.388 20.2627 449.787 19.4933C449.203 18.7085 448.403 18.0621 447.387 17.5543C446.371 17.0465 445.071 16.7926 443.486 16.7926C441.316 16.7926 439.508 17.2927 438.062 18.293C436.631 19.2778 435.915 20.532 435.915 22.0554C435.915 23.4096 436.407 24.479 437.392 25.2638C438.377 26.0486 439.916 26.7027 442.009 27.2259L447.271 28.5185C450.441 29.2879 452.804 30.4651 454.358 32.0501C455.912 33.6197 456.689 35.6432 456.689 38.1207C456.689 40.152 456.104 41.9678 454.935 43.5682C453.781 45.1686 452.165 46.4304 450.088 47.3537C448.01 48.277 445.594 48.7386 442.84 48.7386C439.223 48.7386 436.23 47.9538 433.861 46.3842C431.491 44.8146 429.99 42.5218 429.36 39.5057L434.53 38.2131C435.022 40.1212 435.953 41.5523 437.323 42.5064C438.708 43.4605 440.516 43.9375 442.747 43.9375C445.286 43.9375 447.302 43.3989 448.795 42.3217C450.303 41.2292 451.057 39.9212 451.057 38.3977C451.057 37.1667 450.626 36.1357 449.764 35.3047C448.903 34.4583 447.579 33.8274 445.794 33.4119L439.885 32.027C436.638 31.2576 434.253 30.065 432.73 28.4492C431.222 26.8181 430.468 24.7791 430.468 22.3324C430.468 20.3319 431.029 18.5623 432.153 17.0234C433.291 15.4846 434.838 14.2766 436.792 13.3995C438.762 12.5224 440.993 12.0838 443.486 12.0838C446.994 12.0838 449.749 12.8532 451.749 14.392C453.765 15.9309 455.196 17.9621 456.043 20.4858Z" fill="black"/>
<path d="M4.72443 48H3.72443V49H4.72443V48ZM4.72443 0.727271V-0.272729H3.72443V0.727271H4.72443ZM29.7919 2.62003L29.3219 3.50271L29.3264 3.50507L29.7919 2.62003ZM35.0547 7.7674L34.1679 8.22954L34.1679 8.22954L35.0547 7.7674ZM35.0547 22.6325L34.1706 22.1651L34.1706 22.1651L35.0547 22.6325ZM29.815 27.7106L30.2738 28.5991L30.2783 28.5968L29.815 27.7106ZM7.86364 29.5341H6.86364V30.5341H7.86364V29.5341ZM7.86364 24.3636V23.3636H6.86364V24.3636H7.86364ZM26.6989 23.2557L26.2696 22.3525L26.2661 22.3542L26.6989 23.2557ZM30.0689 20.1165L29.1805 19.6573L29.1785 19.6612L30.0689 20.1165ZM26.6758 6.9826L26.225 7.87528L26.2321 7.87879L26.6758 6.9826ZM10.4489 5.8054V4.8054H9.44886V5.8054H10.4489ZM10.4489 48V49H11.4489V48H10.4489ZM26.9759 26.7642L27.8529 26.2837L27.5683 25.7642H26.9759V26.7642ZM38.6094 48V49H40.2974L39.4864 47.5195L38.6094 48ZM31.9617 48L31.0814 48.4746L31.3647 49H31.9617V48ZM20.5128 26.7642V25.7642H18.8376L19.6326 27.2388L20.5128 26.7642ZM5.72443 48V0.727271H3.72443V48H5.72443ZM4.72443 1.72727H20.6974V-0.272729H4.72443V1.72727ZM20.6974 1.72727C24.2852 1.72727 27.1409 2.34136 29.3219 3.5027L30.2619 1.73736C27.7034 0.375022 24.4961 -0.272729 20.6974 -0.272729V1.72727ZM29.3264 3.50507C31.5324 4.66535 33.1315 6.24073 34.1679 8.22954L35.9415 7.30526C34.7005 4.9238 32.791 3.0676 30.2574 1.73498L29.3264 3.50507ZM34.1679 8.22954C35.223 10.2543 35.7628 12.5774 35.7628 15.223H37.7628C37.7628 12.298 37.1638 9.65078 35.9415 7.30526L34.1679 8.22954ZM35.7628 15.223C35.7628 17.8689 35.2229 20.1742 34.1706 22.1651L35.9388 23.0998C37.1639 20.782 37.7628 18.1477 37.7628 15.223H35.7628ZM34.1706 22.1651C33.135 24.1243 31.5436 25.6783 29.3516 26.8244L30.2783 28.5968C32.7952 27.2808 34.6969 25.4493 35.9388 23.0998L34.1706 22.1651ZM29.3562 26.822C27.1873 27.9419 24.3503 28.5341 20.7898 28.5341V30.5341C24.5541 30.5341 27.7339 29.9106 30.2738 28.5991L29.3562 26.822ZM20.7898 28.5341H7.86364V30.5341H20.7898V28.5341ZM8.86364 29.5341V24.3636H6.86364V29.5341H8.86364ZM7.86364 25.3636H20.6051V23.3636H7.86364V25.3636ZM20.6051 25.3636C23.2128 25.3636 25.4088 24.9841 27.1316 24.1572L26.2661 22.3542C24.9112 23.0045 23.0448 23.3636 20.6051 23.3636V25.3636ZM27.1281 24.1589C28.8537 23.3388 30.1535 22.1473 30.9592 20.5718L29.1785 19.6612C28.5993 20.794 27.6525 21.6953 26.2696 22.3525L27.1281 24.1589ZM30.9573 20.5756C31.7533 19.0354 32.1307 17.2397 32.1307 15.223H30.1307C30.1307 16.9918 29.8002 18.4584 29.1805 19.6573L30.9573 20.5756ZM32.1307 15.223C32.1307 13.2051 31.7529 11.3923 30.9633 9.81308L29.1745 10.7075C29.8006 11.9597 30.1307 13.4554 30.1307 15.223H32.1307ZM30.9633 9.81308C30.1487 8.1838 28.849 6.94264 27.1194 6.0864L26.2321 7.87879C27.611 8.56138 28.5734 9.50536 29.1745 10.7075L30.9633 9.81308ZM27.1265 6.08995C25.3826 5.20937 23.1562 4.8054 20.5128 4.8054V6.8054C22.9782 6.8054 24.8605 7.18622 26.225 7.87525L27.1265 6.08995ZM20.5128 4.8054H10.4489V6.8054H20.5128V4.8054ZM9.44886 5.8054V48H11.4489V5.8054H9.44886ZM10.4489 47H4.72443V49H10.4489V47ZM26.0988 27.2447L37.7324 48.4805L39.4864 47.5195L27.8529 26.2837L26.0988 27.2447ZM38.6094 47H31.9617V49H38.6094V47ZM32.8419 47.5254L21.393 26.2896L19.6326 27.2388L31.0814 48.4746L32.8419 47.5254ZM20.5128 27.7642H26.9759V25.7642H20.5128V27.7642ZM49.8794 47.5614L49.4535 48.4663L49.4598 48.4692L49.8794 47.5614ZM45.5168 43.8452L44.6823 44.3962L44.6847 44.3999L45.5168 43.8452ZM45.1013 32.9964L45.9458 33.532L45.9487 33.5274L45.1013 32.9964ZM52.7416 28.38L52.9555 29.3568L52.9624 29.3553L52.7416 28.38ZM57.6581 27.5028L57.5306 26.511L57.5284 26.5113L57.6581 27.5028ZM62.8978 26.8796L63.0007 27.8744L63.0107 27.8732L62.8978 26.8796ZM65.8524 26.1179L65.3631 25.2457L65.3539 25.251L65.8524 26.1179ZM64.9291 18.7777L64.2133 19.476L64.2176 19.4805L64.9291 18.7777ZM53.2032 18.593L53.8137 19.385L53.8137 19.385L53.2032 18.593ZM50.0871 22.2401L49.7508 23.1818L50.6099 23.4886L50.9941 22.6612L50.0871 22.2401ZM44.9166 20.3935L43.9975 19.9995L43.5784 20.9774L44.5803 21.3352L44.9166 20.3935ZM48.6098 15.3615L49.2249 16.15L49.2259 16.1492L48.6098 15.3615ZM53.6879 12.8224L53.94 13.7902L53.9456 13.7887L53.6879 12.8224ZM63.0594 12.4993L62.8751 13.4822L62.8868 13.4843L63.0594 12.4993ZM67.3758 14.1381L66.8613 14.9956L66.8655 14.9981L67.3758 14.1381ZM70.8612 17.9006L69.9852 18.3828L69.9852 18.3828L70.8612 17.9006ZM72.2462 48V49H73.2462V48H72.2462ZM66.7987 48H65.7987V49H66.7987V48ZM66.7987 43.1989H67.7987V42.1989H66.7987V43.1989ZM66.5218 43.1989V42.1989H65.8925L65.6202 42.7661L66.5218 43.1989ZM64.6752 45.6687L65.3885 46.3695L65.3885 46.3695L64.6752 45.6687ZM61.2359 47.9077L60.8408 46.989L60.8408 46.989L61.2359 47.9077ZM62.2746 42.668L61.7813 41.7981L61.7775 41.8003L62.2746 42.668ZM65.6446 39.3903L64.7776 38.892L64.7733 38.8995L65.6446 39.3903ZM66.7987 30.1804H67.7987V27.4183L66.0305 29.5402L66.7987 30.1804ZM65.2753 30.9421L65.545 31.9052L65.5575 31.9015L65.2753 30.9421ZM62.5977 31.5192L62.7498 32.5076L62.7621 32.5056L62.5977 31.5192ZM59.6663 31.9347L59.7803 32.9282L59.7943 32.9264L59.6663 31.9347ZM57.3811 32.2116L57.5105 33.2032L57.5116 33.2031L57.3811 32.2116ZM53.411 33.1119L53.7236 34.0618L53.7307 34.0594L53.411 33.1119ZM50.4564 34.9354L49.7221 34.2565L49.7216 34.2571L50.4564 34.9354ZM51.449 42.5064L50.8797 43.3286L50.8901 43.3357L51.449 42.5064ZM55.9962 47.831C53.8778 47.831 51.9843 47.4327 50.2989 46.6537L49.4598 48.4692C51.4368 49.3829 53.6212 49.831 55.9962 49.831V47.831ZM50.3051 46.6566C48.6314 45.869 47.3206 44.7482 46.3488 43.2905L44.6847 44.3999C45.8673 46.1737 47.4649 47.5304 49.4536 48.4663L50.3051 46.6566ZM46.3512 43.2941C45.4004 41.8542 44.901 40.0845 44.901 37.9361H42.901C42.901 40.4041 43.4789 42.5738 44.6823 44.3962L46.3512 43.2941ZM44.901 37.9361C44.901 36.0285 45.2775 34.5858 45.9458 33.532L44.2568 32.4609C43.3247 33.9308 42.901 35.7812 42.901 37.9361H44.901ZM45.9487 33.5274C46.6562 32.3981 47.5969 31.5175 48.7851 30.8756L47.8344 29.1159C46.3451 29.9205 45.1468 31.0403 44.2539 32.4655L45.9487 33.5274ZM48.7851 30.8756C50.0349 30.2004 51.4231 29.6925 52.9555 29.3568L52.5276 27.4031C50.8285 27.7753 49.2622 28.3446 47.8344 29.1159L48.7851 30.8756ZM52.9624 29.3553C54.5637 28.9927 56.1721 28.7058 57.7878 28.4944L57.5284 26.5113C55.851 26.7308 54.1818 27.0286 52.5207 27.4047L52.9624 29.3553ZM57.7856 28.4947C59.9361 28.2182 61.6736 28.0116 63.0007 27.8743L62.7949 25.8849C61.4445 26.0246 59.6888 26.2335 57.5306 26.511L57.7856 28.4947ZM63.0107 27.8732C64.3987 27.7155 65.552 27.4441 66.3508 26.9848L65.3539 25.251C64.9217 25.4995 64.1052 25.736 62.7849 25.886L63.0107 27.8732ZM66.3416 26.99C67.36 26.4187 67.7987 25.4192 67.7987 24.2713H65.7987C65.7987 24.8777 65.6065 25.1092 65.3631 25.2458L66.3416 26.99ZM67.7987 24.2713V24.0866H65.7987V24.2713H67.7987ZM67.7987 24.0866C67.7987 21.6242 67.1203 19.573 65.6405 18.0749L64.2176 19.4805C65.2307 20.5061 65.7987 21.9942 65.7987 24.0866H67.7987ZM65.6448 18.0794C64.1579 16.5553 61.9824 15.8849 59.32 15.8849V17.8849C61.6742 17.8849 63.2381 18.4764 64.2133 19.476L65.6448 18.0794ZM59.32 15.8849C56.5839 15.8849 54.3023 16.4832 52.5927 17.801L53.8137 19.385C55.0587 18.4254 56.8549 17.8849 59.32 17.8849V15.8849ZM52.5927 17.801C51.0261 19.0086 49.8655 20.3427 49.1801 21.8189L50.9941 22.6612C51.509 21.5522 52.4257 20.455 53.8137 19.385L52.5927 17.801ZM50.4234 21.2983L45.253 19.4517L44.5803 21.3352L49.7508 23.1818L50.4234 21.2983ZM45.8358 20.7874C46.7059 18.757 47.8434 17.2275 49.2249 16.15L47.9948 14.573C46.2986 15.896 44.9739 17.7212 43.9975 19.9995L45.8358 20.7874ZM49.2259 16.1492C50.6771 15.0141 52.2469 14.2312 53.94 13.7901L53.4359 11.8547C51.4666 12.3677 49.651 13.2776 47.9937 14.5738L49.2259 16.1492ZM53.9456 13.7887C55.7141 13.3171 57.4432 13.0838 59.1354 13.0838V11.0838C57.2575 11.0838 55.355 11.3429 53.4303 11.8562L53.9456 13.7887ZM59.1354 13.0838C60.1963 13.0838 61.4406 13.2132 62.8751 13.4822L63.2437 11.5164C61.7237 11.2314 60.3519 11.0838 59.1354 11.0838V13.0838ZM62.8868 13.4843C64.2508 13.7233 65.5746 14.2236 66.8613 14.9956L67.8903 13.2806C66.4072 12.3908 64.8533 11.7984 63.232 11.5143L62.8868 13.4843ZM66.8655 14.9981C68.0873 15.7231 69.1327 16.834 69.9852 18.3828L71.7373 17.4183C70.7432 15.6125 69.465 14.2151 67.8861 13.2782L66.8655 14.9981ZM69.9852 18.3828C70.7978 19.859 71.2462 21.9194 71.2462 24.6406H73.2462C73.2462 21.7297 72.7713 19.2968 71.7373 17.4183L69.9852 18.3828ZM71.2462 24.6406V48H73.2462V24.6406H71.2462ZM72.2462 47H66.7987V49H72.2462V47ZM67.7987 48V43.1989H65.7987V48H67.7987ZM66.7987 42.1989H66.5218V44.1989H66.7987V42.1989ZM65.6202 42.7661C65.3144 43.4032 64.7775 44.1376 63.9618 44.9679L65.3885 46.3695C66.2963 45.4455 66.9904 44.5333 67.4233 43.6316L65.6202 42.7661ZM63.9618 44.9679C63.2118 45.7313 62.1833 46.4116 60.8408 46.989L61.631 48.8263C63.1507 48.1727 64.4151 47.3603 65.3885 46.3695L63.9618 44.9679ZM60.8408 46.989C59.5678 47.5365 57.9641 47.831 55.9962 47.831V49.831C58.1523 49.831 60.0417 49.5099 61.631 48.8263L60.8408 46.989ZM56.8271 44.9375C59.1104 44.9375 61.108 44.4888 62.7717 43.5357L61.7775 41.8003C60.4867 42.5398 58.8526 42.9375 56.8271 42.9375V44.9375ZM62.7678 43.5379C64.3997 42.6126 65.6626 41.3962 66.5159 39.881L64.7733 38.8995C64.1186 40.0619 63.1348 41.0306 61.7814 41.7981L62.7678 43.5379ZM66.5116 39.8886C67.3641 38.4053 67.7987 36.8264 67.7987 35.1662H65.7987C65.7987 36.4605 65.464 37.6977 64.7776 38.892L66.5116 39.8886ZM67.7987 35.1662V30.1804H65.7987V35.1662H67.7987ZM66.0305 29.5402C66.0396 29.5294 65.9912 29.5873 65.7975 29.6841C65.6141 29.7758 65.3512 29.8774 64.9931 29.9827L65.5575 31.9015C65.9842 31.776 66.3676 31.6352 66.692 31.473C67.0061 31.3159 67.3271 31.1084 67.567 30.8206L66.0305 29.5402ZM65.0057 29.9792C64.2791 30.1826 63.423 30.3678 62.4333 30.5328L62.7621 32.5056C63.8037 32.332 64.7327 32.1325 65.5449 31.9051L65.0057 29.9792ZM62.4457 30.5308C61.4531 30.6835 60.4839 30.8209 59.5383 30.9429L59.7943 32.9264C60.7568 32.8022 61.742 32.6626 62.7498 32.5075L62.4457 30.5308ZM59.5523 30.9412C58.6109 31.0492 57.8431 31.1422 57.2507 31.2202L57.5116 33.2031C58.0886 33.1272 58.8443 33.0356 59.7803 32.9281L59.5523 30.9412ZM57.2518 31.22C55.7776 31.4123 54.3899 31.7261 53.0912 32.1644L53.7307 34.0594C54.8942 33.6667 56.1532 33.3803 57.5105 33.2032L57.2518 31.22ZM53.0983 32.162C51.7462 32.607 50.6079 33.2984 49.7221 34.2565L51.1907 35.6142C51.8129 34.9412 52.6444 34.4169 53.7236 34.0617L53.0983 32.162ZM49.7216 34.2571C48.7698 35.2882 48.3485 36.6476 48.3485 38.2131H50.3485C50.3485 37.0086 50.6657 36.1829 51.1912 35.6136L49.7216 34.2571ZM48.3485 38.2131C48.3485 40.3913 49.1763 42.1493 50.8797 43.3286L52.0182 41.6842C50.9209 40.9246 50.3485 39.8203 50.3485 38.2131H48.3485ZM50.8901 43.3357C52.5106 44.4277 54.5121 44.9375 56.8271 44.9375V42.9375C54.8027 42.9375 53.2188 42.4932 52.0078 41.6771L50.8901 43.3357ZM82.1889 61.2955H81.1889V62.2955H82.1889V61.2955ZM82.1889 12.5455V11.5455H81.1889V12.5455H82.1889ZM87.4517 12.5455H88.4517V11.5455H87.4517V12.5455ZM87.4517 18.1776H86.4517V19.1776H87.4517V18.1776ZM88.098 18.1776V19.1776H88.6407L88.9365 18.7225L88.098 18.1776ZM89.7599 15.8232L88.9584 15.2252L88.9568 15.2273L89.7599 15.8232ZM92.853 13.2379L93.3437 14.1092L93.347 14.1074L92.853 13.2379ZM106.241 14.3228L106.789 13.4864L106.789 13.4864L106.241 14.3228ZM111.573 20.6705L112.479 20.2478L112.479 20.2478L111.573 20.6705ZM111.573 40.1289L112.479 40.5515L112.48 40.5496L111.573 40.1289ZM106.264 46.4996L106.815 47.3343L106.819 47.3317L106.264 46.4996ZM92.9684 47.6076L92.4786 48.4795L92.4861 48.4836L92.9684 47.6076ZM89.8061 44.9993L89.0061 45.5993L89.0107 45.6053L89.8061 44.9993ZM88.098 42.5526L88.9483 42.0262L88.6551 41.5526H88.098V42.5526ZM87.6364 42.5526V41.5526H86.6364V42.5526H87.6364ZM87.6364 61.2955V62.2955H88.6364V61.2955H87.6364ZM88.7212 37.359L87.7875 37.7171L87.7884 37.7194L88.7212 37.359ZM92.1605 42.1371L91.5527 42.9312L91.5579 42.9351L92.1605 42.1371ZM103.402 42.0447L104.021 42.8302L104.022 42.8294L103.402 42.0447ZM106.864 37.1513L105.929 36.7956L105.928 36.7994L106.864 37.1513ZM106.887 23.5327L105.95 23.883L105.954 23.8916L106.887 23.5327ZM103.448 18.7546L102.834 19.544L102.843 19.5508L103.448 18.7546ZM92.1143 18.6623L92.7064 19.4682L92.7117 19.4642L92.1143 18.6623ZM88.6982 23.3249L89.6306 23.6863L89.6315 23.6839L88.6982 23.3249ZM83.1889 61.2955V12.5455H81.1889V61.2955H83.1889ZM82.1889 13.5455H87.4517V11.5455H82.1889V13.5455ZM86.4517 12.5455V18.1776H88.4517V12.5455H86.4517ZM87.4517 19.1776H88.098V17.1776H87.4517V19.1776ZM88.9365 18.7225C89.3206 18.1315 89.861 17.3652 90.563 16.419L88.9568 15.2273C88.2432 16.1892 87.6756 16.9925 87.2596 17.6326L88.9365 18.7225ZM90.5615 16.4211C91.182 15.5893 92.0948 14.8127 93.3437 14.1092L92.3622 12.3666C90.9336 13.1712 89.7844 14.1181 88.9584 15.2252L90.5615 16.4211ZM93.347 14.1074C94.4951 13.4551 96.134 13.0838 98.3466 13.0838V11.0838C95.9427 11.0838 93.9192 11.482 92.359 12.3685L93.347 14.1074ZM98.3466 13.0838C101.157 13.0838 103.594 13.7835 105.693 15.1592L106.789 13.4864C104.333 11.8768 101.507 11.0838 98.3466 11.0838V13.0838ZM105.693 15.1592C107.798 16.5389 109.459 18.5034 110.666 21.0931L112.479 20.2478C111.132 17.3593 109.239 15.092 106.789 13.4864L105.693 15.1592ZM110.666 21.0931C111.869 23.6728 112.489 26.754 112.489 30.3651H114.489C114.489 26.5282 113.831 23.1463 112.479 20.2478L110.666 21.0931ZM112.489 30.3651C112.489 34.008 111.869 37.1129 110.666 39.7082L112.48 40.5496C113.831 37.6359 114.489 34.2315 114.489 30.3651H112.489ZM110.666 39.7063C109.458 42.2984 107.802 44.2723 105.709 45.6676L106.819 47.3317C109.25 45.7109 111.133 43.4377 112.479 40.5515L110.666 39.7063ZM105.713 45.665C103.629 47.0401 101.216 47.7386 98.4389 47.7386V49.7386C101.571 49.7386 104.374 48.9445 106.815 47.3343L105.713 45.665ZM98.4389 47.7386C96.2583 47.7386 94.6203 47.3755 93.4507 46.7316L92.4861 48.4836C94.0556 49.3477 96.0646 49.7386 98.4389 49.7386V47.7386ZM93.4582 46.7358C92.1747 46.0147 91.2373 45.2277 90.6015 44.3932L89.0107 45.6053C89.8522 46.7098 91.023 47.6617 92.4786 48.4794L93.4582 46.7358ZM90.6061 44.3993C89.8759 43.4256 89.3262 42.6367 88.9483 42.0262L87.2477 43.0789C87.67 43.7611 88.2591 44.6033 89.0061 45.5993L90.6061 44.3993ZM88.098 41.5526H87.6364V43.5526H88.098V41.5526ZM86.6364 42.5526V61.2955H88.6364V42.5526H86.6364ZM87.6364 60.2955H82.1889V62.2955H87.6364V60.2955ZM86.544 30.2727C86.544 33.0464 86.9504 35.5339 87.7875 37.7171L89.6549 37.001C88.9225 35.0908 88.544 32.8542 88.544 30.2727H86.544ZM87.7884 37.7194C88.6297 39.8967 89.8781 41.6495 91.5528 42.9312L92.7683 41.3429C91.4269 40.3164 90.3824 38.8838 89.654 36.9986L87.7884 37.7194ZM91.5579 42.9351C93.2658 44.2247 95.3331 44.8452 97.7003 44.8452V42.8452C95.6972 42.8452 94.0713 42.3269 92.7631 41.339L91.5579 42.9351ZM97.7003 44.8452C100.162 44.8452 102.291 44.1928 104.021 42.8302L102.783 41.2593C101.465 42.2973 99.794 42.8452 97.7003 42.8452V44.8452ZM104.022 42.8294C105.719 41.4883 106.974 39.7 107.8 37.5032L105.928 36.7994C105.215 38.6958 104.162 40.1698 102.782 41.2601L104.022 42.8294ZM107.799 37.507C108.632 35.3162 109.041 32.9007 109.041 30.2727H107.041C107.041 32.6921 106.665 34.8623 105.929 36.7956L107.799 37.507ZM109.041 30.2727C109.041 27.6768 108.64 25.3058 107.82 23.1737L105.954 23.8916C106.673 25.7605 107.041 27.8829 107.041 30.2727H109.041ZM107.824 23.1823C107.011 21.0103 105.759 19.255 104.053 17.9585L102.843 19.5508C104.214 20.5933 105.255 22.0234 105.95 23.883L107.824 23.1823ZM104.062 17.9653C102.33 16.6185 100.186 15.9773 97.7003 15.9773V17.9773C99.8312 17.9773 101.518 18.5209 102.834 19.544L104.062 17.9653ZM97.7003 15.9773C95.3088 15.9773 93.227 16.5866 91.517 17.8603L92.7117 19.4642C94.0178 18.4913 95.6599 17.9773 97.7003 17.9773V15.9773ZM91.5223 17.8564C89.8386 19.0934 88.5927 20.8135 87.7648 22.9659L89.6315 23.6839C90.3425 21.8354 91.374 20.4471 92.7064 19.4682L91.5223 17.8564ZM87.7657 22.9635C86.9423 25.0881 86.544 27.5313 86.544 30.2727H88.544C88.544 27.7206 88.9152 25.5319 89.6306 23.6863L87.7657 22.9635ZM127.246 48V49H128.246V48H127.246ZM121.798 48H120.798V49H121.798V48ZM121.798 0.727271V-0.272729H120.798V0.727271H121.798ZM127.246 0.727271H128.246V-0.272729H127.246V0.727271ZM127.246 18.0852H126.246V19.0852H127.246V18.0852ZM127.707 18.0852V19.0852H128.352L128.618 18.4985L127.707 18.0852ZM131.447 13.7227L131.991 14.5618L131.993 14.5606L131.447 13.7227ZM144.488 13.538L144.017 14.4202L144.023 14.4232L144.488 13.538ZM148.712 17.9467L147.819 18.3967L147.824 18.405L148.712 17.9467ZM150.236 48V49H151.236V48H150.236ZM144.788 48H143.788V49H144.788V48ZM142.596 19.3086L141.863 19.9899L141.871 19.9973L142.596 19.3086ZM131.77 18.1083L131.3 17.2257L131.296 17.2278L131.77 18.1083ZM128.446 21.4091L127.575 20.9179L127.571 20.925L128.446 21.4091ZM126.246 26.6719V48H128.246V26.6719H126.246ZM127.246 47H121.798V49H127.246V47ZM122.798 48V0.727271H120.798V48H122.798ZM121.798 1.72727H127.246V-0.272729H121.798V1.72727ZM126.246 0.727271V18.0852H128.246V0.727271H126.246ZM127.246 19.0852H127.707V17.0852H127.246V19.0852ZM128.618 18.4985C129.371 16.8385 130.492 15.5333 131.991 14.5618L130.903 12.8835C129.078 14.0664 127.705 15.6695 126.797 17.672L128.618 18.4985ZM131.993 14.5606C133.456 13.6076 135.476 13.0838 138.141 13.0838V11.0838C135.235 11.0838 132.793 11.6526 130.901 12.8847L131.993 14.5606ZM138.141 13.0838C140.421 13.0838 142.37 13.5405 144.017 14.4201L144.959 12.6558C142.975 11.5966 140.692 11.0838 138.141 11.0838V13.0838ZM144.023 14.4232C145.639 15.2722 146.905 16.5814 147.819 18.3967L149.605 17.4968C148.52 15.3419 146.969 13.712 144.953 12.6528L144.023 14.4232ZM147.824 18.405C148.744 20.19 149.236 22.5275 149.236 25.4716H151.236C151.236 22.3219 150.712 19.6428 149.601 17.4884L147.824 18.405ZM149.236 25.4716V48H151.236V25.4716H149.236ZM150.236 47H144.788V49H150.236V47ZM145.788 48V25.8409H143.788V48H145.788ZM145.788 25.8409C145.788 22.8545 145.01 20.3987 143.321 18.6198L141.871 19.9973C143.104 21.2961 143.788 23.1952 143.788 25.8409H145.788ZM143.328 18.6273C141.653 16.8279 139.355 15.9773 136.571 15.9773V17.9773C138.926 17.9773 140.645 18.6809 141.864 19.9899L143.328 18.6273ZM136.571 15.9773C134.641 15.9773 132.876 16.3862 131.3 17.2257L132.24 18.9909C133.495 18.3224 134.931 17.9773 136.571 17.9773V15.9773ZM131.296 17.2278C129.721 18.0756 128.479 19.3144 127.575 20.9179L129.317 21.9002C130.044 20.6108 131.018 19.6491 132.244 18.9888L131.296 17.2278ZM127.571 20.925C126.671 22.552 126.246 24.4818 126.246 26.6719H128.246C128.246 24.7379 128.621 23.1591 129.321 21.8932L127.571 20.925ZM164.518 47.5614L164.092 48.4663L164.098 48.4692L164.518 47.5614ZM160.155 43.8452L159.321 44.3962L159.323 44.3999L160.155 43.8452ZM159.74 32.9964L160.584 33.532L160.587 33.5274L159.74 32.9964ZM167.38 28.38L167.594 29.3568L167.601 29.3553L167.38 28.38ZM172.297 27.5028L172.169 26.511L172.167 26.5113L172.297 27.5028ZM177.536 26.8796L177.639 27.8744L177.649 27.8732L177.536 26.8796ZM180.491 26.1179L180.002 25.2457L179.993 25.251L180.491 26.1179ZM179.568 18.7777L178.852 19.476L178.856 19.4805L179.568 18.7777ZM167.842 18.593L168.452 19.385L168.452 19.385L167.842 18.593ZM164.726 22.2401L164.389 23.1818L165.249 23.4886L165.633 22.6612L164.726 22.2401ZM159.555 20.3935L158.636 19.9995L158.217 20.9774L159.219 21.3352L159.555 20.3935ZM163.248 15.3615L163.864 16.15L163.865 16.1492L163.248 15.3615ZM168.327 12.8224L168.579 13.7902L168.584 13.7887L168.327 12.8224ZM177.698 12.4993L177.514 13.4822L177.525 13.4843L177.698 12.4993ZM182.014 14.1381L181.5 14.9956L181.504 14.9981L182.014 14.1381ZM185.5 17.9006L184.624 18.3828L184.624 18.3828L185.5 17.9006ZM186.885 48V49H187.885V48H186.885ZM181.437 48H180.437V49H181.437V48ZM181.437 43.1989H182.437V42.1989H181.437V43.1989ZM181.16 43.1989V42.1989H180.531L180.259 42.7661L181.16 43.1989ZM179.314 45.6687L180.027 46.3695L180.027 46.3695L179.314 45.6687ZM175.875 47.9077L175.479 46.989L175.479 46.989L175.875 47.9077ZM176.913 42.668L176.42 41.7981L176.416 41.8003L176.913 42.668ZM180.283 39.3903L179.416 38.892L179.412 38.8995L180.283 39.3903ZM181.437 30.1804H182.437V27.4183L180.669 29.5402L181.437 30.1804ZM179.914 30.9421L180.184 31.9052L180.196 31.9015L179.914 30.9421ZM177.236 31.5192L177.388 32.5076L177.401 32.5056L177.236 31.5192ZM174.305 31.9347L174.419 32.9282L174.433 32.9264L174.305 31.9347ZM172.02 32.2116L172.149 33.2032L172.15 33.2031L172.02 32.2116ZM168.05 33.1119L168.362 34.0618L168.369 34.0594L168.05 33.1119ZM165.095 34.9354L164.361 34.2565L164.36 34.2571L165.095 34.9354ZM166.088 42.5064L165.518 43.3286L165.529 43.3357L166.088 42.5064ZM170.635 47.831C168.516 47.831 166.623 47.4327 164.938 46.6537L164.098 48.4692C166.075 49.3829 168.26 49.831 170.635 49.831V47.831ZM164.944 46.6566C163.27 45.869 161.959 44.7482 160.988 43.2905L159.323 44.3999C160.506 46.1737 162.104 47.5304 164.092 48.4663L164.944 46.6566ZM160.99 43.2941C160.039 41.8542 159.54 40.0845 159.54 37.9361H157.54C157.54 40.4041 158.118 42.5738 159.321 44.3962L160.99 43.2941ZM159.54 37.9361C159.54 36.0285 159.916 34.5858 160.584 33.532L158.895 32.4609C157.963 33.9308 157.54 35.7812 157.54 37.9361H159.54ZM160.587 33.5274C161.295 32.3981 162.236 31.5175 163.424 30.8756L162.473 29.1159C160.984 29.9205 159.785 31.0403 158.893 32.4655L160.587 33.5274ZM163.424 30.8756C164.674 30.2004 166.062 29.6925 167.594 29.3568L167.166 27.4031C165.467 27.7753 163.901 28.3446 162.473 29.1159L163.424 30.8756ZM167.601 29.3553C169.202 28.9927 170.811 28.7058 172.427 28.4944L172.167 26.5113C170.49 26.7308 168.82 27.0286 167.159 27.4047L167.601 29.3553ZM172.424 28.4947C174.575 28.2182 176.312 28.0116 177.639 27.8743L177.434 25.8849C176.083 26.0246 174.328 26.2335 172.169 26.511L172.424 28.4947ZM177.649 27.8732C179.037 27.7155 180.191 27.4441 180.99 26.9848L179.993 25.251C179.56 25.4995 178.744 25.736 177.424 25.886L177.649 27.8732ZM180.98 26.99C181.999 26.4187 182.437 25.4192 182.437 24.2713H180.437C180.437 24.8777 180.245 25.1092 180.002 25.2458L180.98 26.99ZM182.437 24.2713V24.0866H180.437V24.2713H182.437ZM182.437 24.0866C182.437 21.6242 181.759 19.573 180.279 18.0749L178.856 19.4805C179.869 20.5061 180.437 21.9942 180.437 24.0866H182.437ZM180.284 18.0794C178.797 16.5553 176.621 15.8849 173.959 15.8849V17.8849C176.313 17.8849 177.877 18.4764 178.852 19.476L180.284 18.0794ZM173.959 15.8849C171.223 15.8849 168.941 16.4832 167.231 17.801L168.452 19.385C169.697 18.4254 171.494 17.8849 173.959 17.8849V15.8849ZM167.231 17.801C165.665 19.0086 164.504 20.3427 163.819 21.8189L165.633 22.6612C166.148 21.5522 167.064 20.455 168.452 19.385L167.231 17.801ZM165.062 21.2983L159.892 19.4517L159.219 21.3352L164.389 23.1818L165.062 21.2983ZM160.474 20.7874C161.345 18.757 162.482 17.2275 163.864 16.15L162.633 14.573C160.937 15.896 159.613 17.7212 158.636 19.9995L160.474 20.7874ZM163.865 16.1492C165.316 15.0141 166.886 14.2312 168.579 13.7901L168.075 11.8547C166.105 12.3677 164.29 13.2776 162.632 14.5738L163.865 16.1492ZM168.584 13.7887C170.353 13.3171 172.082 13.0838 173.774 13.0838V11.0838C171.896 11.0838 169.994 11.3429 168.069 11.8562L168.584 13.7887ZM173.774 13.0838C174.835 13.0838 176.079 13.2132 177.514 13.4822L177.882 11.5164C176.362 11.2314 174.991 11.0838 173.774 11.0838V13.0838ZM177.525 13.4843C178.89 13.7233 180.213 14.2236 181.5 14.9956L182.529 13.2806C181.046 12.3908 179.492 11.7984 177.871 11.5143L177.525 13.4843ZM181.504 14.9981C182.726 15.7231 183.771 16.834 184.624 18.3828L186.376 17.4183C185.382 15.6125 184.104 14.2151 182.525 13.2782L181.504 14.9981ZM184.624 18.3828C185.436 19.859 185.885 21.9194 185.885 24.6406H187.885C187.885 21.7297 187.41 19.2968 186.376 17.4183L184.624 18.3828ZM185.885 24.6406V48H187.885V24.6406H185.885ZM186.885 47H181.437V49H186.885V47ZM182.437 48V43.1989H180.437V48H182.437ZM181.437 42.1989H181.16V44.1989H181.437V42.1989ZM180.259 42.7661C179.953 43.4032 179.416 44.1376 178.6 44.9679L180.027 46.3695C180.935 45.4455 181.629 44.5333 182.062 43.6316L180.259 42.7661ZM178.6 44.9679C177.85 45.7313 176.822 46.4116 175.479 46.989L176.27 48.8263C177.789 48.1727 179.054 47.3603 180.027 46.3695L178.6 44.9679ZM175.479 46.989C174.207 47.5365 172.603 47.831 170.635 47.831V49.831C172.791 49.831 174.68 49.5099 176.27 48.8263L175.479 46.989ZM171.466 44.9375C173.749 44.9375 175.747 44.4888 177.41 43.5357L176.416 41.8003C175.125 42.5398 173.491 42.9375 171.466 42.9375V44.9375ZM177.407 43.5379C179.038 42.6126 180.301 41.3962 181.155 39.881L179.412 38.8995C178.757 40.0619 177.773 41.0306 176.42 41.7981L177.407 43.5379ZM181.15 39.8886C182.003 38.4053 182.437 36.8264 182.437 35.1662H180.437C180.437 36.4605 180.103 37.6977 179.416 38.892L181.15 39.8886ZM182.437 35.1662V30.1804H180.437V35.1662H182.437ZM180.669 29.5402C180.678 29.5294 180.63 29.5873 180.436 29.6841C180.253 29.7758 179.99 29.8774 179.632 29.9827L180.196 31.9015C180.623 31.776 181.006 31.6352 181.331 31.473C181.645 31.3159 181.966 31.1084 182.206 30.8206L180.669 29.5402ZM179.644 29.9792C178.918 30.1826 178.062 30.3678 177.072 30.5328L177.401 32.5056C178.442 32.332 179.371 32.1325 180.184 31.9051L179.644 29.9792ZM177.084 30.5308C176.092 30.6835 175.123 30.8209 174.177 30.9429L174.433 32.9264C175.395 32.8022 176.381 32.6626 177.388 32.5075L177.084 30.5308ZM174.191 30.9412C173.25 31.0492 172.482 31.1422 171.889 31.2202L172.15 33.2031C172.727 33.1272 173.483 33.0356 174.419 32.9281L174.191 30.9412ZM171.89 31.22C170.416 31.4123 169.029 31.7261 167.73 32.1644L168.369 34.0594C169.533 33.6667 170.792 33.3803 172.149 33.2032L171.89 31.22ZM167.737 32.162C166.385 32.607 165.247 33.2984 164.361 34.2565L165.829 35.6142C166.452 34.9412 167.283 34.4169 168.362 34.0617L167.737 32.162ZM164.36 34.2571C163.408 35.2882 162.987 36.6476 162.987 38.2131H164.987C164.987 37.0086 165.304 36.1829 165.83 35.6136L164.36 34.2571ZM162.987 38.2131C162.987 40.3913 163.815 42.1493 165.518 43.3286L166.657 41.6842C165.56 40.9246 164.987 39.8203 164.987 38.2131H162.987ZM165.529 43.3357C167.149 44.4277 169.151 44.9375 171.466 44.9375V42.9375C169.441 42.9375 167.857 42.4932 166.646 41.6771L165.529 43.3357ZM202.852 46.4766L202.326 47.327L202.332 47.3308L202.852 46.4766ZM197.151 40.1058L196.25 40.5409L196.253 40.5469L197.151 40.1058ZM197.151 20.9474L196.249 20.5142L196.248 20.5163L197.151 20.9474ZM202.737 14.4382L203.283 15.276L203.284 15.2752L202.737 14.4382ZM216.609 13.0071L216.933 12.0609L216.933 12.0609L216.609 13.0071ZM221.526 16.0078L220.842 16.7374L220.846 16.7412L221.526 16.0078ZM225.057 21.4553L225.99 21.0937L225.99 21.0937L225.057 21.4553ZM226.373 32.1193V33.1193H227.373V32.1193H226.373ZM199.044 32.1193H198.044V33.1193H199.044V32.1193ZM199.044 27.4105V26.4105H198.044V27.4105H199.044ZM220.833 27.4105V28.4105H221.833V27.4105H220.833ZM219.633 22.0554L218.739 22.5026L218.742 22.5096L219.633 22.0554ZM216.263 18.3391L215.731 19.1861L215.735 19.1886L216.263 18.3391ZM205.507 18.593L206.067 19.4213L206.069 19.4201L205.507 18.593ZM201.883 22.7479L200.987 22.3039L200.987 22.3039L201.883 22.7479ZM201.998 38.19L201.102 38.6343L201.107 38.6431L201.998 38.19ZM205.899 42.4141L205.395 43.2779L205.401 43.2813L205.899 42.4141ZM215.57 43.245L215.898 44.1899L215.905 44.1873L215.57 43.245ZM218.594 41.3984L219.288 42.1185L219.295 42.112L218.594 41.3984ZM220.556 38.3054L220.827 37.3426L219.942 37.0944L219.62 37.9543L220.556 38.3054ZM225.819 39.7827L226.774 40.0791L227.079 39.0976L226.089 38.8199L225.819 39.7827ZM223.026 44.4915L223.741 45.1903L223.745 45.1862L223.026 44.4915ZM218.179 47.6307L218.537 48.5642L218.544 48.5617L218.179 47.6307ZM211.693 47.7386C208.427 47.7386 205.667 47.0192 203.372 45.6224L202.332 47.3308C204.992 48.95 208.126 49.7386 211.693 49.7386V47.7386ZM203.378 45.6262C201.084 44.2065 199.308 42.2284 198.048 39.6647L196.253 40.5469C197.671 43.4307 199.696 45.6998 202.326 47.3269L203.378 45.6262ZM198.051 39.6708C196.805 37.0911 196.166 34.0596 196.166 30.5497H194.166C194.166 34.3031 194.85 37.6423 196.25 40.5409L198.051 39.6708ZM196.166 30.5497C196.166 27.0402 196.805 23.9914 198.053 21.3785L196.248 20.5163C194.85 23.4433 194.166 26.796 194.166 30.5497H196.166ZM198.052 21.3807C199.319 18.7456 201.064 16.7219 203.283 15.276L202.191 13.6004C199.639 15.2629 197.66 17.5787 196.249 20.5142L198.052 21.3807ZM203.284 15.2752C205.503 13.824 208.109 13.0838 211.139 13.0838V11.0838C207.767 11.0838 204.771 11.9132 202.189 13.6012L203.284 15.2752ZM211.139 13.0838C212.872 13.0838 214.586 13.3723 216.286 13.9533L216.933 12.0609C215.031 11.4108 213.099 11.0838 211.139 11.0838V13.0838ZM216.286 13.9533C217.943 14.5201 219.461 15.443 220.842 16.7373L222.21 15.2783C220.636 13.8027 218.876 12.7252 216.933 12.0609L216.286 13.9533ZM220.846 16.7412C222.191 17.9886 223.292 19.6677 224.125 21.8168L225.99 21.0937C225.069 18.7187 223.815 16.7662 222.206 15.2745L220.846 16.7412ZM224.125 21.8168C224.944 23.93 225.373 26.5842 225.373 29.8111H227.373C227.373 26.421 226.925 23.5047 225.99 21.0937L224.125 21.8168ZM225.373 29.8111V32.1193H227.373V29.8111H225.373ZM226.373 31.1193H199.044V33.1193H226.373V31.1193ZM200.044 32.1193V27.4105H198.044V32.1193H200.044ZM199.044 28.4105H220.833V26.4105H199.044V28.4105ZM221.833 27.4105C221.833 25.2737 221.405 23.3295 220.524 21.6012L218.742 22.5096C219.461 23.9205 219.833 25.5464 219.833 27.4105H221.833ZM220.527 21.6082C219.662 19.8766 218.413 18.4971 216.791 17.4896L215.735 19.1886C217.037 19.9969 218.035 21.095 218.739 22.5026L220.527 21.6082ZM216.795 17.4921C215.166 16.4697 213.267 15.9773 211.139 15.9773V17.9773C212.95 17.9773 214.467 18.3928 215.731 19.1861L216.795 17.4921ZM211.139 15.9773C208.796 15.9773 206.717 16.5616 204.944 17.766L206.069 19.4201C207.467 18.4701 209.142 17.9773 211.139 17.9773V15.9773ZM204.946 17.7648C203.233 18.9241 201.909 20.4418 200.987 22.3039L202.779 23.1918C203.549 21.6378 204.641 20.3856 206.067 19.4213L204.946 17.7648ZM200.987 22.3039C200.07 24.1535 199.613 26.1372 199.613 28.2415H201.613C201.613 26.4372 202.002 24.7584 202.779 23.1918L200.987 22.3039ZM199.613 28.2415V31.3807H201.613V28.2415H199.613ZM199.613 31.3807C199.613 34.1694 200.094 36.6002 201.102 38.6342L202.894 37.7457C202.056 36.0558 201.613 33.9471 201.613 31.3807H199.613ZM201.107 38.6431C202.125 40.6473 203.554 42.2041 205.395 43.2778L206.403 41.5503C204.92 40.6851 203.748 39.4259 202.889 37.7368L201.107 38.6431ZM205.401 43.2813C207.236 44.3346 209.344 44.8452 211.693 44.8452V42.8452C209.641 42.8452 207.886 42.4017 206.397 41.5468L205.401 43.2813ZM211.693 44.8452C213.217 44.8452 214.622 44.6321 215.898 44.1899L215.243 42.3002C214.21 42.6581 213.031 42.8452 211.693 42.8452V44.8452ZM215.905 44.1873C217.201 43.7269 218.334 43.0384 219.288 42.1185L217.9 40.6784C217.162 41.3897 216.279 41.9322 215.236 42.3027L215.905 44.1873ZM219.295 42.112C220.256 41.1682 220.985 40.0092 221.493 38.6565L219.62 37.9543C219.204 39.0637 218.625 39.9667 217.894 40.6849L219.295 42.112ZM220.286 39.2682L225.549 40.7455L226.089 38.8199L220.827 37.3426L220.286 39.2682ZM224.864 39.4863C224.357 41.1208 223.507 42.5542 222.307 43.7967L223.745 45.1862C225.161 43.7204 226.173 42.0146 226.774 40.0791L224.864 39.4863ZM222.311 43.7926C221.112 45.02 219.619 45.9919 217.814 46.6997L218.544 48.5617C220.585 47.7614 222.325 46.6405 223.741 45.1903L222.311 43.7926ZM217.82 46.6971C216.028 47.3852 213.991 47.7386 211.693 47.7386V49.7386C214.196 49.7386 216.482 49.3534 218.537 48.5642L217.82 46.6971ZM240.107 0.727271H241.107V-0.272729H240.107V0.727271ZM240.107 48V49H241.107V48H240.107ZM234.66 48H233.66V49H234.66V48ZM234.66 0.727271V-0.272729H233.66V0.727271H234.66ZM239.107 0.727271V48H241.107V0.727271H239.107ZM240.107 47H234.66V49H240.107V47ZM235.66 48V0.727271H233.66V48H235.66ZM234.66 1.72727H240.107V-0.272729H234.66V1.72727ZM306.59 0.727271H307.59V-0.272729H306.59V0.727271ZM306.59 48V49H307.59V48H306.59ZM301.05 48L300.229 48.5702L300.527 49H301.05V48ZM275.29 10.8835L276.112 10.3134L275.814 9.88352H275.29V10.8835ZM274.829 10.8835V9.88352H273.829V10.8835H274.829ZM274.829 48V49H275.829V48H274.829ZM269.104 48H268.104V49H269.104V48ZM269.104 0.727271V-0.272729H268.104V0.727271H269.104ZM274.644 0.727271L275.465 0.156685L275.167 -0.272729H274.644V0.727271ZM300.496 37.9361L299.675 38.5067L299.973 38.9361H300.496V37.9361ZM300.958 37.9361V38.9361H301.958V37.9361H300.958ZM300.958 0.727271V-0.272729H299.958V0.727271H300.958ZM305.59 0.727271V48H307.59V0.727271H305.59ZM306.59 47H301.05V49H306.59V47ZM301.872 47.4298L276.112 10.3134L274.469 11.4537L300.229 48.5702L301.872 47.4298ZM275.29 9.88352H274.829V11.8835H275.29V9.88352ZM273.829 10.8835V48H275.829V10.8835H273.829ZM274.829 47H269.104V49H274.829V47ZM270.104 48V0.727271H268.104V48H270.104ZM269.104 1.72727H274.644V-0.272729H269.104V1.72727ZM273.823 1.29786L299.675 38.5067L301.318 37.3655L275.465 0.156685L273.823 1.29786ZM300.496 38.9361H300.958V36.9361H300.496V38.9361ZM301.958 37.9361V0.727271H299.958V37.9361H301.958ZM300.958 1.72727H306.59V-0.272729H300.958V1.72727ZM339.65 12.5455V11.5455H338.65V12.5455H339.65ZM345.097 12.5455H346.097V11.5455H345.097V12.5455ZM345.097 48V49H346.097V48H345.097ZM339.65 48H338.65V49H339.65V48ZM339.65 41.9986H340.65V40.9986H339.65V41.9986ZM339.281 41.9986V40.9986H338.641L338.373 41.5795L339.281 41.9986ZM335.403 46.592L335.982 47.4072L335.987 47.4038L335.403 46.592ZM322.846 47.0075L322.35 47.8757L322.356 47.879L322.846 47.0075ZM318.783 42.5756L317.888 43.0201L317.889 43.0229L318.783 42.5756ZM317.306 12.5455V11.5455H316.306V12.5455H317.306ZM322.754 12.5455H323.754V11.5455H322.754V12.5455ZM324.923 40.8906L324.195 41.5755L324.198 41.5794L324.923 40.8906ZM334.641 42.1602L334.202 41.2618L334.198 41.2638L334.641 42.1602ZM338.196 38.9748L337.368 38.4139L337.364 38.4201L338.196 38.9748ZM340.65 33.5043V12.5455H338.65V33.5043H340.65ZM339.65 13.5455H345.097V11.5455H339.65V13.5455ZM344.097 12.5455V48H346.097V12.5455H344.097ZM345.097 47H339.65V49H345.097V47ZM340.65 48V41.9986H338.65V48H340.65ZM339.65 40.9986H339.281V42.9986H339.65V40.9986ZM338.373 41.5795C337.62 43.2094 336.446 44.6098 334.819 45.7802L335.987 47.4038C337.868 46.0505 339.279 44.3886 340.189 42.4176L338.373 41.5795ZM334.823 45.7768C333.276 46.8764 331.276 47.4616 328.755 47.4616V49.4616C331.589 49.4616 334.021 48.8004 335.982 47.4072L334.823 45.7768ZM328.755 47.4616C326.69 47.4616 324.893 47.0114 323.336 46.1359L322.356 47.879C324.246 48.9425 326.388 49.4616 328.755 49.4616V47.4616ZM323.342 46.1392C321.808 45.2629 320.584 43.9416 319.678 42.1284L317.889 43.0229C318.952 45.1491 320.436 46.7823 322.35 47.8757L323.342 46.1392ZM319.679 42.1312C318.783 40.3248 318.306 37.9886 318.306 35.0739H316.306C316.306 38.1913 316.814 40.8563 317.888 43.0201L319.679 42.1312ZM318.306 35.0739V12.5455H316.306V35.0739H318.306ZM317.306 13.5455H322.754V11.5455H317.306V13.5455ZM321.754 12.5455V34.7045H323.754V12.5455H321.754ZM321.754 34.7045C321.754 37.4842 322.537 39.8117 324.195 41.5755L325.652 40.2057C324.417 38.8919 323.754 37.0953 323.754 34.7045H321.754ZM324.198 41.5794C325.862 43.3311 327.993 44.1989 330.509 44.1989V42.1989C328.501 42.1989 326.908 41.5278 325.648 40.2019L324.198 41.5794ZM330.509 44.1989C332.039 44.1989 333.567 43.8067 335.084 43.0565L334.198 41.2638C332.914 41.8986 331.688 42.1989 330.509 42.1989V44.1989ZM335.08 43.0585C336.669 42.2812 337.985 41.094 339.028 39.5295L337.364 38.4201C336.498 39.7178 335.444 40.6542 334.202 41.2619L335.08 43.0585ZM339.024 39.5356C340.133 37.8979 340.65 35.864 340.65 33.5043H338.65C338.65 35.5763 338.197 37.1894 337.368 38.4139L339.024 39.5356ZM360.522 48V49H361.522V48H360.522ZM355.075 48H354.075V49H355.075V48ZM355.075 12.5455V11.5455H354.075V12.5455H355.075ZM360.337 12.5455H361.337V11.5455H360.337V12.5455ZM360.337 18.0852H359.337V19.0852H360.337V18.0852ZM360.799 18.0852V19.0852H361.439L361.707 18.5043L360.799 18.0852ZM364.585 13.7457L365.127 14.5859L365.132 14.5824L364.585 13.7457ZM377.441 13.5611L376.962 14.4384L376.967 14.4415L377.441 13.5611ZM381.642 17.9929L380.749 18.4429L380.751 18.4457L381.642 17.9929ZM383.143 48V49H384.143V48H383.143ZM377.695 48H376.695V49H377.695V48ZM375.526 19.3317L374.79 20.0094L374.794 20.013L375.526 19.3317ZM364.908 18.1083L364.425 17.2323L364.421 17.2346L364.908 18.1083ZM361.699 21.4091L360.82 20.9322L360.82 20.9322L361.699 21.4091ZM359.522 26.6719V48H361.522V26.6719H359.522ZM360.522 47H355.075V49H360.522V47ZM356.075 48V12.5455H354.075V48H356.075ZM355.075 13.5455H360.337V11.5455H355.075V13.5455ZM359.337 12.5455V18.0852H361.337V12.5455H359.337ZM360.337 19.0852H360.799V17.0852H360.337V19.0852ZM361.707 18.5043C362.457 16.879 363.591 15.5774 365.127 14.5859L364.042 12.9056C362.193 14.0992 360.803 15.6906 359.891 17.6662L361.707 18.5043ZM365.132 14.5824C366.617 13.6104 368.595 13.0838 371.14 13.0838V11.0838C368.33 11.0838 365.937 11.6651 364.037 12.909L365.132 14.5824ZM371.14 13.0838C373.401 13.0838 375.332 13.5467 376.962 14.4384L377.921 12.6838C375.951 11.6057 373.68 11.0838 371.14 11.0838V13.0838ZM376.967 14.4415C378.572 15.3053 379.833 16.6241 380.749 18.4429L382.536 17.5429C381.451 15.3915 379.912 13.7558 377.916 12.6806L376.967 14.4415ZM380.751 18.4457C381.659 20.2334 382.143 22.5583 382.143 25.4716H384.143C384.143 22.3527 383.627 19.6918 382.534 17.5401L380.751 18.4457ZM382.143 25.4716V48H384.143V25.4716H382.143ZM383.143 47H377.695V49H383.143V47ZM378.695 48V25.8409H376.695V48H378.695ZM378.695 25.8409C378.695 22.8839 377.925 20.4415 376.258 18.6504L374.794 20.013C376.02 21.3303 376.695 23.2274 376.695 25.8409H378.695ZM376.261 18.654C374.591 16.8414 372.318 15.9773 369.57 15.9773V17.9773C371.87 17.9773 373.568 18.6827 374.79 20.0094L376.261 18.654ZM369.57 15.9773C367.682 15.9773 365.959 16.3881 364.425 17.2323L365.39 18.9843C366.596 18.3205 367.981 17.9773 369.57 17.9773V15.9773ZM364.421 17.2346C362.891 18.0868 361.69 19.3297 360.82 20.9322L362.578 21.886C363.278 20.5955 364.216 19.6379 365.394 18.982L364.421 17.2346ZM360.82 20.9322C359.938 22.5576 359.522 24.4847 359.522 26.6719H361.522C361.522 24.735 361.891 23.1536 362.578 21.886L360.82 20.9322ZM399.122 46.4766L398.595 47.327L398.602 47.3308L399.122 46.4766ZM393.42 40.1058L392.52 40.5409L392.523 40.5469L393.42 40.1058ZM393.42 20.9474L392.519 20.5142L392.518 20.5163L393.42 20.9474ZM399.006 14.4382L399.552 15.276L399.553 15.2752L399.006 14.4382ZM412.879 13.0071L413.202 12.0609L413.202 12.0609L412.879 13.0071ZM417.795 16.0078L417.111 16.7374L417.115 16.7412L417.795 16.0078ZM421.327 21.4553L422.259 21.0937L422.259 21.0937L421.327 21.4553ZM422.643 32.1193V33.1193H423.643V32.1193H422.643ZM395.313 32.1193H394.313V33.1193H395.313V32.1193ZM395.313 27.4105V26.4105H394.313V27.4105H395.313ZM417.103 27.4105V28.4105H418.103V27.4105H417.103ZM415.903 22.0554L415.008 22.5026L415.012 22.5096L415.903 22.0554ZM412.532 18.3391L412.001 19.1861L412.005 19.1886L412.532 18.3391ZM401.776 18.593L402.336 19.4213L402.338 19.4201L401.776 18.593ZM398.152 22.7479L397.256 22.3039L397.256 22.3039L398.152 22.7479ZM398.268 38.19L397.372 38.6343L397.376 38.6431L398.268 38.19ZM402.169 42.4141L401.665 43.2779L401.671 43.2813L402.169 42.4141ZM411.84 43.245L412.168 44.1899L412.175 44.1873L411.84 43.245ZM414.864 41.3984L415.558 42.1185L415.564 42.112L414.864 41.3984ZM416.826 38.3054L417.096 37.3426L416.212 37.0944L415.889 37.9543L416.826 38.3054ZM422.089 39.7827L423.044 40.0791L423.348 39.0976L422.359 38.8199L422.089 39.7827ZM419.296 44.4915L420.011 45.1903L420.015 45.1862L419.296 44.4915ZM414.448 47.6307L414.807 48.5642L414.813 48.5617L414.448 47.6307ZM407.962 47.7386C404.696 47.7386 401.936 47.0192 399.642 45.6224L398.602 47.3308C401.262 48.95 404.396 49.7386 407.962 49.7386V47.7386ZM399.648 45.6262C397.353 44.2065 395.578 42.2284 394.318 39.6647L392.523 40.5469C393.94 43.4307 395.966 45.6998 398.595 47.3269L399.648 45.6262ZM394.321 39.6708C393.074 37.0911 392.435 34.0596 392.435 30.5497H390.435C390.435 34.3031 391.119 37.6423 392.52 40.5409L394.321 39.6708ZM392.435 30.5497C392.435 27.0402 393.074 23.9914 394.323 21.3785L392.518 20.5163C391.12 23.4433 390.435 26.796 390.435 30.5497H392.435ZM394.322 21.3807C395.588 18.7456 397.333 16.7219 399.552 15.276L398.46 13.6004C395.909 15.2629 393.93 17.5787 392.519 20.5142L394.322 21.3807ZM399.553 15.2752C401.773 13.824 404.378 13.0838 407.408 13.0838V11.0838C404.036 11.0838 401.041 11.9132 398.459 13.6012L399.553 15.2752ZM407.408 13.0838C409.141 13.0838 410.856 13.3723 412.555 13.9533L413.202 12.0609C411.301 11.4108 409.368 11.0838 407.408 11.0838V13.0838ZM412.555 13.9533C414.213 14.5201 415.731 15.443 417.111 16.7373L418.479 15.2783C416.905 13.8027 415.145 12.7252 413.202 12.0609L412.555 13.9533ZM417.115 16.7412C418.461 17.9886 419.561 19.6677 420.395 21.8168L422.259 21.0937C421.338 18.7187 420.084 16.7662 418.475 15.2745L417.115 16.7412ZM420.395 21.8168C421.214 23.93 421.643 26.5842 421.643 29.8111H423.643C423.643 26.421 423.194 23.5047 422.259 21.0937L420.395 21.8168ZM421.643 29.8111V32.1193H423.643V29.8111H421.643ZM422.643 31.1193H395.313V33.1193H422.643V31.1193ZM396.313 32.1193V27.4105H394.313V32.1193H396.313ZM395.313 28.4105H417.103V26.4105H395.313V28.4105ZM418.103 27.4105C418.103 25.2737 417.675 23.3295 416.793 21.6012L415.012 22.5096C415.731 23.9205 416.103 25.5464 416.103 27.4105H418.103ZM416.797 21.6082C415.931 19.8766 414.682 18.4971 413.06 17.4896L412.005 19.1886C413.306 19.9969 414.304 21.095 415.008 22.5026L416.797 21.6082ZM413.064 17.4921C411.435 16.4697 409.537 15.9773 407.408 15.9773V17.9773C409.219 17.9773 410.737 18.3928 412.001 19.1861L413.064 17.4921ZM407.408 15.9773C405.065 15.9773 402.986 16.5616 401.214 17.766L402.338 19.4201C403.736 18.4701 405.411 17.9773 407.408 17.9773V15.9773ZM401.216 17.7648C399.502 18.9241 398.179 20.4418 397.256 22.3039L399.048 23.1918C399.818 21.6378 400.911 20.3856 402.336 19.4213L401.216 17.7648ZM397.256 22.3039C396.34 24.1535 395.883 26.1372 395.883 28.2415H397.883C397.883 26.4372 398.272 24.7584 399.048 23.1918L397.256 22.3039ZM395.883 28.2415V31.3807H397.883V28.2415H395.883ZM395.883 31.3807C395.883 34.1694 396.363 36.6002 397.372 38.6342L399.163 37.7457C398.325 36.0558 397.883 33.9471 397.883 31.3807H395.883ZM397.376 38.6431C398.395 40.6473 399.824 42.2041 401.665 43.2778L402.672 41.5503C401.189 40.6851 400.018 39.4259 399.159 37.7368L397.376 38.6431ZM401.671 43.2813C403.505 44.3346 405.613 44.8452 407.962 44.8452V42.8452C405.91 42.8452 404.156 42.4017 402.666 41.5468L401.671 43.2813ZM407.962 44.8452C409.486 44.8452 410.892 44.6321 412.168 44.1899L411.512 42.3002C410.48 42.6581 409.3 42.8452 407.962 42.8452V44.8452ZM412.175 44.1873C413.471 43.7269 414.603 43.0384 415.558 42.1185L414.17 40.6784C413.432 41.3897 412.548 41.9322 411.505 42.3027L412.175 44.1873ZM415.564 42.112C416.526 41.1682 417.255 40.0092 417.762 38.6565L415.889 37.9543C415.473 39.0637 414.895 39.9667 414.163 40.6849L415.564 42.112ZM416.556 39.2682L421.818 40.7455L422.359 38.8199L417.096 37.3426L416.556 39.2682ZM421.134 39.4863C420.626 41.1208 419.777 42.5542 418.576 43.7967L420.015 45.1862C421.431 43.7204 422.443 42.0146 423.044 40.0791L421.134 39.4863ZM418.58 43.7926C417.381 45.02 415.889 45.9919 414.083 46.6997L414.813 48.5617C416.855 47.7614 418.594 46.6405 420.011 45.1903L418.58 43.7926ZM414.09 46.6971C412.298 47.3852 410.26 47.7386 407.962 47.7386V49.7386C410.465 49.7386 412.752 49.3534 414.807 48.5642L414.09 46.6971ZM456.043 20.4858L456.315 21.448L457.324 21.1623L456.991 20.1678L456.043 20.4858ZM451.149 21.8707L450.214 22.2238L450.538 23.083L451.422 22.8329L451.149 21.8707ZM449.787 19.4933L448.986 20.0907L448.992 20.0996L448.999 20.1083L449.787 19.4933ZM447.387 17.5543L447.834 16.6599L447.834 16.6599L447.387 17.5543ZM438.062 18.293L438.629 19.1168L438.63 19.1155L438.062 18.293ZM437.392 25.2638L436.769 26.0459L436.769 26.0459L437.392 25.2638ZM442.009 27.2259L441.766 28.196L441.77 28.197L442.009 27.2259ZM447.271 28.5185L447.033 29.4896L447.036 29.4903L447.271 28.5185ZM454.358 32.0501L453.644 32.7502L453.647 32.7537L454.358 32.0501ZM454.935 43.5682L454.127 42.9782L454.124 42.9833L454.935 43.5682ZM433.861 46.3842L434.413 45.5505L434.413 45.5505L433.861 46.3842ZM429.36 39.5057L429.117 38.5355L428.184 38.7688L428.381 39.7104L429.36 39.5057ZM434.53 38.2131L435.498 37.9632L435.25 37.0022L434.287 37.2429L434.53 38.2131ZM437.323 42.5064L436.751 43.3269L436.756 43.3299L437.323 42.5064ZM448.795 42.3217L449.38 43.1326L449.382 43.1315L448.795 42.3217ZM449.764 35.3047L449.064 36.0182L449.07 36.0245L449.764 35.3047ZM445.794 33.4119L445.566 34.3855L445.568 34.3859L445.794 33.4119ZM439.885 32.027L439.655 33L439.657 33.0006L439.885 32.027ZM432.73 28.4492L431.995 29.1281L432.002 29.1352L432.73 28.4492ZM432.153 17.0234L431.349 16.4286L431.345 16.4338L432.153 17.0234ZM436.792 13.3995L436.385 12.486L436.383 12.4872L436.792 13.3995ZM451.749 14.392L451.14 15.1847L451.143 15.1869L451.749 14.392ZM455.77 19.5236L450.877 20.9085L451.422 22.8329L456.315 21.448L455.77 19.5236ZM452.085 21.5177C451.738 20.5974 451.231 19.7177 450.576 18.8782L448.999 20.1083C449.544 20.8076 449.945 21.5129 450.214 22.2238L452.085 21.5177ZM450.589 18.8958C449.897 17.967 448.967 17.2264 447.834 16.6599L446.94 18.4488C447.838 18.8979 448.508 19.4499 448.986 20.0907L450.589 18.8958ZM447.834 16.6599C446.636 16.0608 445.168 15.7926 443.486 15.7926V17.7926C444.974 17.7926 446.107 18.0323 446.94 18.4488L447.834 16.6599ZM443.486 15.7926C441.161 15.7926 439.142 16.3301 437.493 17.4705L438.63 19.1155C439.874 18.2554 441.471 17.7926 443.486 17.7926V15.7926ZM437.495 17.4692C435.837 18.6102 434.915 20.1526 434.915 22.0554H436.915C436.915 20.9113 437.424 19.9454 438.629 19.1168L437.495 17.4692ZM434.915 22.0554C434.915 23.6877 435.526 25.0555 436.769 26.0459L438.015 24.4818C437.289 23.9026 436.915 23.1315 436.915 22.0554H434.915ZM436.769 26.0459C437.919 26.962 439.62 27.6594 441.766 28.196L442.251 26.2557C440.212 25.7459 438.835 25.1353 438.015 24.4818L436.769 26.0459ZM441.77 28.197L447.033 29.4896L447.51 27.5473L442.247 26.2547L441.77 28.197ZM447.036 29.4903C450.104 30.235 452.268 31.3473 453.644 32.7502L455.072 31.3499C453.339 29.5828 450.779 28.3407 447.507 27.5467L447.036 29.4903ZM453.647 32.7537C454.993 34.1126 455.689 35.8718 455.689 38.1207H457.689C457.689 35.4147 456.831 33.1268 455.068 31.3465L453.647 32.7537ZM455.689 38.1207C455.689 39.9455 455.169 41.5535 454.127 42.9782L455.742 44.1582C457.04 42.3821 457.689 40.3585 457.689 38.1207H455.689ZM454.124 42.9833C453.088 44.4195 451.622 45.5774 449.681 46.4399L450.494 48.2675C452.708 47.2834 454.473 45.9177 455.746 44.1531L454.124 42.9833ZM449.681 46.4399C447.756 47.2956 445.483 47.7386 442.84 47.7386V49.7386C445.705 49.7386 448.264 49.2583 450.494 48.2675L449.681 46.4399ZM442.84 47.7386C439.367 47.7386 436.58 46.9856 434.413 45.5505L433.308 47.2179C435.881 48.9221 439.08 49.7386 442.84 49.7386V47.7386ZM434.413 45.5505C432.282 44.1392 430.92 42.0832 430.338 39.3009L428.381 39.7104C429.061 42.9603 430.7 45.4901 433.308 47.2179L434.413 45.5505ZM429.602 40.4758L434.773 39.1832L434.287 37.2429L429.117 38.5355L429.602 40.4758ZM433.562 38.4629C434.103 40.5586 435.151 42.2123 436.751 43.3269L437.895 41.6859C436.756 40.8924 435.942 39.6838 435.498 37.9632L433.562 38.4629ZM436.756 43.3299C438.354 44.4311 440.379 44.9375 442.747 44.9375V42.9375C440.653 42.9375 439.062 42.4899 437.89 41.6829L436.756 43.3299ZM442.747 44.9375C445.419 44.9375 447.663 44.3716 449.38 43.1326L448.21 41.5108C446.941 42.4262 445.154 42.9375 442.747 42.9375V44.9375ZM449.382 43.1315C451.084 41.8979 452.057 40.3143 452.057 38.3977H450.057C450.057 39.5281 449.522 40.5604 448.208 41.5119L449.382 43.1315ZM452.057 38.3977C452.057 36.9038 451.522 35.6102 450.459 34.5848L449.07 36.0245C449.73 36.6611 450.057 37.4295 450.057 38.3977H452.057ZM450.465 34.5912C449.421 33.566 447.899 32.8751 446.021 32.438L445.568 34.3859C447.259 34.7797 448.384 35.3507 449.064 36.0181L450.465 34.5912ZM446.022 32.4383L440.113 31.0534L439.657 33.0006L445.566 34.3855L446.022 32.4383ZM440.116 31.0539C436.969 30.3084 434.795 29.1821 433.457 27.7632L432.002 29.1352C433.711 30.9479 436.307 32.2068 439.655 33L440.116 31.0539ZM433.464 27.7704C432.145 26.3434 431.468 24.5552 431.468 22.3324H429.468C429.468 25.0031 430.299 27.2928 431.995 29.1281L433.464 27.7704ZM431.468 22.3324C431.468 20.5326 431.968 18.9718 432.96 17.613L431.345 16.4338C430.09 18.1527 429.468 20.1313 429.468 22.3324H431.468ZM432.956 17.6183C433.981 16.2332 435.385 15.1272 437.202 14.3118L436.383 12.4872C434.291 13.426 432.601 14.736 431.349 16.4286L432.956 17.6183ZM437.199 14.313C439.022 13.5011 441.111 13.0838 443.486 13.0838V11.0838C440.875 11.0838 438.501 11.5436 436.385 12.486L437.199 14.313ZM443.486 13.0838C446.858 13.0838 449.371 13.824 451.14 15.1847L452.359 13.5994C450.127 11.8824 447.131 11.0838 443.486 11.0838V13.0838ZM451.143 15.1869C452.992 16.5983 454.309 18.4597 455.095 20.8038L456.991 20.1678C456.084 17.4646 454.539 15.2635 452.356 13.5972L451.143 15.1869Z" fill="black" mask="url(#path-1-outside-1_0_1)"/>
</g>
<defs>
<filter id="filter0_d_0_1" x="0.724426" y="0.727295" width="459.965" height="68.5682" filterUnits="userSpaceOnUse" color-interpolation-filters="sRGB">
<feFlood flood-opacity="0" result="BackgroundImageFix"/>
<feColorMatrix in="SourceAlpha" type="matrix" values="0 0 0 0 0 0 0 0 0 0 0 0 0 0 0 0 0 0 127 0" result="hardAlpha"/>
<feOffset dy="4"/>
<feGaussianBlur stdDeviation="2"/>
<feComposite in2="hardAlpha" operator="out"/>
<feColorMatrix type="matrix" values="0 0 0 0 0 0 0 0 0 0 0 0 0 0 0 0 0 0 0.25 0"/>
<feBlend mode="normal" in2="BackgroundImageFix" result="effect1_dropShadow_0_1"/>
<feBlend mode="normal" in="SourceGraphic" in2="effect1_dropShadow_0_1" result="shape"/>
</filter>
</defs>
</svg>
